<mxfile host="app.diagrams.net" modified="2023-10-06T09:18:46.287Z" agent="Mozilla/5.0 (Windows NT 10.0; Win64; x64) AppleWebKit/537.36 (KHTML, like Gecko) Chrome/117.0.0.0 Safari/537.36 Edg/117.0.2045.47" etag="OffGRGSv8e1YW4bWe_Ny" version="21.7.5" type="device">
  <diagram name="Page-1" id="06Ff2ttU7dihyLNqOLMO">
    <mxGraphModel dx="1037" dy="701" grid="0" gridSize="10" guides="1" tooltips="1" connect="1" arrows="1" fold="1" page="1" pageScale="1" pageWidth="850" pageHeight="1100" math="0" shadow="0">
      <root>
        <mxCell id="0" />
        <mxCell id="1" parent="0" />
        <mxCell id="NF1J7Xzm1R2NQvQhPd1J-17" style="edgeStyle=orthogonalEdgeStyle;rounded=0;orthogonalLoop=1;jettySize=auto;html=1;startArrow=classic;startFill=1;" edge="1" parent="1" source="NF1J7Xzm1R2NQvQhPd1J-1">
          <mxGeometry relative="1" as="geometry">
            <mxPoint x="338.7142857142858" y="245" as="targetPoint" />
          </mxGeometry>
        </mxCell>
        <mxCell id="NF1J7Xzm1R2NQvQhPd1J-1" value="" style="points=[[0.35,0,0],[0.98,0.51,0],[1,0.71,0],[0.67,1,0],[0,0.795,0],[0,0.65,0]];verticalLabelPosition=bottom;sketch=0;html=1;verticalAlign=top;aspect=fixed;align=center;pointerEvents=1;shape=mxgraph.cisco19.user;fillColor=#005073;strokeColor=none;" vertex="1" parent="1">
          <mxGeometry x="80" y="200" width="90" height="90" as="geometry" />
        </mxCell>
        <mxCell id="NF1J7Xzm1R2NQvQhPd1J-2" value="&lt;b&gt;Client Angular Application&lt;/b&gt;" style="text;html=1;strokeColor=none;fillColor=none;align=center;verticalAlign=middle;whiteSpace=wrap;rounded=0;" vertex="1" parent="1">
          <mxGeometry x="106" y="302" width="60" height="40" as="geometry" />
        </mxCell>
        <mxCell id="NF1J7Xzm1R2NQvQhPd1J-4" value="" style="shape=image;html=1;verticalAlign=top;verticalLabelPosition=bottom;labelBackgroundColor=#ffffff;imageAspect=0;aspect=fixed;image=https://cdn0.iconfinder.com/data/icons/long-shadow-web-icons/512/angular-symbol-128.png" vertex="1" parent="1">
          <mxGeometry x="44" y="259" width="54" height="54" as="geometry" />
        </mxCell>
        <mxCell id="NF1J7Xzm1R2NQvQhPd1J-14" style="edgeStyle=orthogonalEdgeStyle;rounded=0;orthogonalLoop=1;jettySize=auto;html=1;entryX=0.5;entryY=1;entryDx=0;entryDy=0;endArrow=none;endFill=0;" edge="1" parent="1" source="NF1J7Xzm1R2NQvQhPd1J-5" target="NF1J7Xzm1R2NQvQhPd1J-8">
          <mxGeometry relative="1" as="geometry" />
        </mxCell>
        <mxCell id="NF1J7Xzm1R2NQvQhPd1J-16" style="edgeStyle=orthogonalEdgeStyle;rounded=0;orthogonalLoop=1;jettySize=auto;html=1;exitX=0.75;exitY=0;exitDx=0;exitDy=0;entryX=0.5;entryY=1;entryDx=0;entryDy=0;endArrow=none;endFill=0;" edge="1" parent="1" source="NF1J7Xzm1R2NQvQhPd1J-5" target="NF1J7Xzm1R2NQvQhPd1J-9">
          <mxGeometry relative="1" as="geometry">
            <Array as="points">
              <mxPoint x="395" y="172" />
              <mxPoint x="447" y="172" />
              <mxPoint x="447" y="133" />
            </Array>
          </mxGeometry>
        </mxCell>
        <mxCell id="NF1J7Xzm1R2NQvQhPd1J-19" style="edgeStyle=orthogonalEdgeStyle;rounded=0;orthogonalLoop=1;jettySize=auto;html=1;exitX=0;exitY=0.75;exitDx=0;exitDy=0;entryX=1.028;entryY=0.825;entryDx=0;entryDy=0;entryPerimeter=0;" edge="1" parent="1" source="NF1J7Xzm1R2NQvQhPd1J-5" target="NF1J7Xzm1R2NQvQhPd1J-1">
          <mxGeometry relative="1" as="geometry" />
        </mxCell>
        <mxCell id="NF1J7Xzm1R2NQvQhPd1J-5" value="" style="image;aspect=fixed;perimeter=ellipsePerimeter;html=1;align=center;shadow=0;dashed=0;spacingTop=3;image=img/lib/active_directory/windows_server.svg;" vertex="1" parent="1">
          <mxGeometry x="347" y="214" width="67" height="81.71" as="geometry" />
        </mxCell>
        <mxCell id="NF1J7Xzm1R2NQvQhPd1J-6" value="" style="shape=image;verticalLabelPosition=bottom;verticalAlign=top;imageAspect=0;aspect=fixed;image=data:image/jpeg,/9j/4AAQSkZJRgABAQAAAQABAAD/2wBDAAsJCQcJCQcJCQkJCwkJCQkJCQsJCwsMCwsLDA0QDBEODQ4MEhkSJRodJR0ZHxwpKRYlNzU2GioyPi0pMBk7IRP/2wBDAQcICAsJCxULCxUsHRkdLCwsLCwsLCwsLCwsLCwsLCwsLCwsLCwsLCwsLCwsLCwsLCwsLCwsLCwsLCwsLCwsLCz/wAARCADtAdgDASIAAhEBAxEB/8QAGwABAAIDAQEAAAAAAAAAAAAAAAYHAQQFAwL/xABPEAACAgECAwQGBgIOCQIHAAAAAQIDBAURBhIhMUFRcRMiYYGRoRQjMlJysRXBM0JTYmNzgpKisrPR4fAWJCU0Q1RktMI1o3SUw8TS0/H/xAAaAQEAAwEBAQAAAAAAAAAAAAAAAwQFAQIG/8QALhEAAgICAQIFAwMFAQEAAAAAAAECAwQRIRIxBRMyQVEiYXEUM0IVIzRDkVKx/9oADAMBAAIRAxEAPwC3AAAAAAAAAAAAADztuooi53W11x8bJRivmcb0Ox6A5FvEGkVb8tk7Wum1NbfzlsvmaNnFME/qsObXjZbGPyin+ZXnlVQ7yIZX1x7skoIlPijNf2MWiP4pTl+Wx8f6T6l304vwt/8AyIXn0L3I/wBVV8kwBE48U5S258Sl+PLZOO/lumbEOKMdtemxLoLxhOM/7j2s2l+51ZNT9ySA5VOvaPdsvT+jk+66Mobe/bb5nShZXYlKE4yi+xwakviixCyMvS9k6mpdmfYAJD0AAAAAAAAAAAAAAAAAAAAAAAAAAAAAAAAAAAAAAAAAAAAAAAAAAAAAAAAAAAAAAAAAAADwysrGw6ndkWRhDsSfbJ+EYrq2cbSW2cbSW2exzs3WNPwuaE589y/4VPrSX4mui95HdQ17Ly+evH5sfHfT1XtdNfvmuzyOP/nf/FmTkeIqP01csz7cxLiHJ2MviDUr940uONB90GpWbfjf6kcmc7LJOdk52TfbKyTlL5nyDIsvst9TM+ds5+pgAEJEAAcAAAAPuq7Ix25UW21S7N65OO/u7D4B6jKUezPSfSd3E4kzKuWOVCN8O+UdoWL3djJFh6lgZyXoLY8+27rl6ti84sgBlOUWpRlKMk04yi9mmvBmjT4hZDifKLleXKHq5RZRkiWn8RXVctWcnZDsV0V68fxolNNtV9cLapxnXNbxlF7po2qb4XLcWaddsbFuJ6AAsEoAAAAAAAAAAAAAAAAAAAAAAAAAAAAAAAAAAAAAAAAAAAAAAAAAAAAAAAAAMBnN1XVK9Oq6JTyLE1TXv0/HP2I8TnGEeqR5lJRW2fWp6pjadD1vXyJreqlP1mvvS/ekLysvJzbXdkT5pvflS+xBfdhHuPO226+yy66bnbY95yb6v2eXgj4Pm8rMlc9R7GNfkStel2AAKJUAAAAAAAAAAAAAAAAAABuYGo5en2c1UnKpv6ymW/JLyS7GaYJK7JVvcT1CcoPaLBwc7Gz6VbTL2Ti/tQl4SNsrvEzMnBuV1EnzLpOL+zZH7skTnAzaM+iN1T27rIP7UJ7dYtfkfRYmUrlp9zax8hWrT7m2AC+WgAAAAAAAAAAAAAAAAAAAAAAAAAAAAAAAAAAAAAAAAAAAAAAAAAAAGDD7HvtsAa2dmU4OPZkW93qwj3zm+yKIFkZF2VdZkXPeyx7vwS7or2I3dY1CWflPkf8Aq1DcKVv0k++z393kc0+czsnzZdMfSv8A6Y2Vf1y6I+wABmlIAAAAAAAAAAAAAAAAAAAAAAHvPFvqxsXJmmoZMpqtNdUopdX+LtXkelFyW0elF62eBt6fnW6fkRugm4PZXQ+/D2e3vRqA7CcoS6kdhNwfUix6Lqsiuu6qSlCyKlFrvTPUiHD+o+hu+hWy+qubdLf7Wz7vk+7yJcj6nHuV0FI3abFZHZkAFkmAAAAAAAAAAAAAAAAAAAAAAAAAAAAAAAAAAAAAAAAAAAAAAAABxOIc14+J9Hre1uVvDp+1qX237+z3nbIBqmW8zNybU/q4y9FSn+5w3Sa8+r95RzbvKq/JVyrPLr/JpeHh2de4AHzL+WYncAA4cAAAAAAAAAAAAAAAAAOgANpdr27vidrTNBvynG3NjKrH6ONT6W2r98u6P+e8mpplbLSRLXXKx6ieGkaVPUbFZZHbCrkuaX7s0/sQf3fE73EGPGWmylFJPGnVOKXdHfkaXxR16666oQrriowhFRjGK2SSXYj4y6vpGJlU/utNkF5uOyN+GLGupwXdo140KFbj7ldf4fADrsvLr7gfNSXLMN8NobyWzj9pNOPskuqZPNJzFnYdNu/1kd67l3qcej+Pb7yBnZ4ey/QZv0ebfJlxcV4KyCbT+BoYF3l2dL7Mu4lnTPXyTMAH0hsgAAAAAAAAAAAAAAAAAAAAAAAGDXlm6fGUq5ZeLGcWoyhK6tSUuxJpvf5Gw/AqrVdO1OzV9SnHT82VdmpTlCyONY4yg716ykumxWyLnSk0t7I7JOOuC1V1MnyuxH0TpkgAB6AAAAAAAAAAAAAAABz9Xyfoun5Vi+1KHoq1++s9Uga8PDo/PvZJuKb+mDjJr1pWXz/krkj+ciMnzviVnVZ0/Bj5s9z6QADMKIAAAAB0AGYRssmq6q52WPshXFyl8jq4/D2r3reaqx4vqvSScpfzYf3ktdNlj+hbJI1Tn6UckElhwr0+tzZN/wAHXGK/pNnouFsX/nMnfyr2/qllYFz9idYlr9iLAlP+i2N3ZmR71W//ABPl8LVd2bb/ADKzv6C/4O/pLPgjAJQuFsfpzZl/t2Va/UbFfDWlQac/T2+KstaXwhsdXh1r7nVh2Mh+66Lq2+iUU235JdTo4mi6pltP0foKn2zyFKLaa7Yw7WTHHwMDF2+j49Vb8YxXN75dvzNku1+GxXNj/wCFiGFFepnKwNDwMFqxr0+Qv+Lal0/BBeqjqmQacIRrWorRfjBRWooBgEh6K6zKvQ5eZUl0ryLkvLmbPA6WuQ5NUzPCforF/Kgl+o5p8hfHpskvufPWrU2DMZzqlC2DanXONkNvvRakjAIk+l7I09PZY2PdC+mi6D3jbXGcfKS3PY4vDd3pdPVbfrY9tlT/ALRfmdo+vqn1wUj6KuXVFMAHzOUYQnOTSjCLlJ+EUt2yVnsSlCEZTnKMYxW8pSaSS9rfQ5tmv8O1S5Zanicy7eWfOvjDdFeatq2oa9mKuv0kqJ3eiwcWtvlfVqM5rscn2vwXkdKjgfV7IKV+XiUSa39HGE7nH2OScUZLzrJyaohtIrO6UnqC2TKvXuHrPsanh+TtjH+tsb1WRjXrem6q1eNc4z/qsgNnAurL9jzsKf8AGV2Q/Lc8sfhPiHFzcCx1486qsvHstnRfy7QhZGTe0kn8jscnITSnX/w6rLN8xLIPhzhFpSlFNrslJJ7eOx9eBXPG/XV8deGDX/aTZbyb/IrdjRJZPoWyxU0+qaa8U9/yPG3LwaHy3ZWPXLwtthF/CT3KxxsvifOxsfTtOWVLGxoeh5cJeji+u7dtzklv7/8AHZhwZxHYnOcMKEn15bL5zm37XGDXzKf6+c1uqtsiVzkvpiWRVfjXLmpuqsj41TjNfGLPUqHJwdY0S+t2xtxbd/qraJ+rPbtUZx7feTrhfXJ6rRbRktfTcXl9JJLZW1y7LFH5Mkx85Wz8qa0zsLlJ9LWiSGAVjxTlZ0Nb1SunKya4qFChGu6yEU3RDfblaLGTkRx4dckSWTUFtlngheXxjjYtFGPgV/SsiFNUZ3WuUaIyUUn27Sk/Hs/URfJ1fiLV3ZWsjLvclJKjBjNV77bJOFK/NlezxCqGlHl/Y8O+K4Lb8B09hqabCdWn6bXZFxnXh40JxnvzRlGuKalv3ldZGra0tXvqhqOYq/0s6VBXS5VX9J5eRR7Owlvyo0xi5Lue52dKTZaIMLsIrxjn5+DVpbw8iyh2XXqx1tLmUYJpPdE9tqpg5y7I9Skox6mSswVtjcYapiYc6ZtZGXO+clkZck4wg1HaEYVpb7eZ4S1DjXUfXg9VlB9n0WmdFe3scEt/iUf6lW1uCbZD58WuC0DJU0tS4pwLIemytTolv6scv0rjLbu5bVs/iTHhriOepylh5ihHNhB2QnD1Y3wXRtR7mu9HunPhbPy2mn9zsL1J6fBKADT1HUMTTMWzLyp7Qg4xio9ZWTl2QgvF/wCewvykoptkzeuWbhgrfL4y13JsUcONeNGW/o66qvpF8l4tyT9+0EeX6W46r+slLU1FdW5Ye8NvJ1bGdLxGrekmyD9RHfHJZwK1q404hgnGX0S1rpvZRJSXmq5JfI+v9ONb32cNPT9tdv8A+w5/U6O3P/Dv6iBZAOXoGfkanpOBnX+j9LkRnKXok1DpOUVtu34eINKL6kmiZNNbI9xDb6TU5w7qaaq/j9Z+s5BvavLn1PUX4Xcn82KRonymTLd0jAue7GAAVyEAAAdO86ml6NkahtbY5VYm/SW207du3kT7F7T50bTP0hkSlYn9Eoa9J/Cz7fR+XiTiEYwUYxSUYrlSS2SS7EjWwsNT+ufY0MbG6vqka+JhYeHBQx6YVrvaXrSfjKXazaAN2MVFaitGqkktIAA9HQAAAAAAAAADDOdqeTKP0fBpf+s58/RRa6uuldbLWvYt9vM42lycb0jfrsjZCM49Yy7H49x9nzCMYQhCK2jCKjFeCS2R9D2OohnEkdtRhL7+NW/hKSOMdzif/fsb/wCG/wDqSOGfL5q/vyMLJ/cYH/8AAOzr4FQrEi4Wt2sz6fGNV0fnFkqRDOG5uOpTj3TxbPlODJmfS4Et0o3MV7rBp6opvTNVUPtvCylHbxdUtjcMNJpppNNbNPsaZdkuqLRZfJVHDWRi4utaddkSjClRuqU5NKMZ2Q5Y7t+PVe8taL32aaafVNPoyvtX4Pz6bbbdMisjGm3JUOUY3VbttqLm0nH3nGhkcSaT6qlqWJGPZGyNvol/OTgYVF08PcLI8b7lOEpU7jJcFuArTF4012tr0rxcqC235ock/wCdU0vkSvR+KNP1WyOPKE8bLkny1WSUo2bJt+jmtt/gjRpzqbXqL0/uWI3RnwiQFbcav/bMP3uDT85TLJK140f+2pezCx/m5sh8U/x3+Uecj0Ex4YSWg6Nskt8aLe3i2+p2Tk8NrbQtGX/SV/PqdYvU+hfhEsPSjl69gwz9Kz6ZRTnGmd1L7421xcotefZ7yv8AhbJdGuads2o5KtxprxUoOcU/ei0preM0+xxa+RUWi9Na0Tb/AJ+tLw29ZGVnJRurmu5WuX1xZbxVXFUttc1eX3XV8qIFq/4FT8UPfWta/jIr4UwR78W5qj+TuT6ESrSuDtLjVTfnylmWThCxVy3hjw5knsoRe798mSmnHx8eEa6Kq6q10Ua4RhFbeyIxly4+OvCqtfCKPUv00wrj9KJoRUUtIyVBP1tb89aX/dblvlQV+trVPt1mP/dbmf4p/r/JBk+xbyIVx49oaKv4TLf9GBNSE8ePpoi/fZb+VZa8Q/xpkt/oZ6cFYODZhX5lmPTPJ+l3VK2cFOShCMdoxciZf5/zsRfghbaPa/HOyn84olJJhxUaY6O1L6Eaudh42fjX4uRBSrtg4vdLeLfZKPtXaVZpU7MHWtNbe06dQjjWPx5pOifue5bpUOWttcyNu7Wnt/8ANFHxFanXNd9kd604st3fp09xX3HGVKzPw8Td+jxsf07W3/EtbW/uS+ZYK7EVvxrVKGrwsf2L8OrZ/glKLJ/Em/070dvf9sknCGm4+NpeNmOEXlZ0XdZY0nJQb9StPwS2JJscXhfIryNE03la5qKljWx742VPkafw3O2y1jKKqj0/BLXrpWiF8a6biqijUq4Rher66L5RSj6Suak057d6fZ5jgm+OTjZ+HfCuf0WyuVTnCMmq7k24dfBp/E2eNr6oabj4za9JkZUJRjv19HUpSlL8viaXAVUm9ava9XmxaE/GUYynL80ZjilnfT8Fd8XcE2hCEIqEIxjFdFGKSS8kgfQNstleah/v+pe3Kv8A67NY3NTjy6jqS/6myXx6mmfIXfuS/J87b62AAREYG0nsoJucnGMEu+Unsgb+j1K7VMGMlvGEp3yX8XF7fPYkqh5k1EkrXVJImOn4kMHEx8eG3qQTm/vTfWUn5s3DBk+tjFRSS9j6FJRWkAAezoAAAAAAAAADBrZmZjYVMrsiajFdIpfanLwijjaits42ktsxm5mPg0WZF8tox6Qj+2nLujFeJzNEqvyrMjWMpbW5P1eNB9VXjp93n+r2nJrjmcQ6hvdvHEpadkYt8lcN91Ul96Xe/AmMIxhGEIpKMUoxS7FFLZIqVyd0uv8AiuxBBu19Xsj6DALhYIdxNLfPoj93Fi/jOZxDqa/NT1TIS/4VdNfl6vM/zOWfKZT3dIwch7tYABWK51eH/wD1Wn+Iv/8AEm5CuHY76pF/cxrn8ZQRNT6Pw79k2sP9sAHxdbGmq66e/JVXOyW3bywTk9tzRb13Lh9mGk11SZHqeMeG7UnK+6lvrtdRZ+dfMvmbsOIeHbFvHU8T+VPlfwlsyv59T46keOuPyZzdD0XPjJX4dLm09rIRVdsX4qcNnuVjnVWaVqOTVVY3ZgZalTNfafI4zju/zLFy+KeHsauco5cMixJuNeMpWSk/DmS5V72V5FZWt6tGHL9fqOXzzSW6qr35py8opdv95kZ7rk4+Xpy37FW7pbXT3LdhNThXNdkoqS8mtyteMn/tu32YmMv6zLLikkkl0SSRWXGDb1zL27fo2Ml5uHsLPif+Pp/KJL+Ick74fXLomir/AKLH+cEzqHD0PUdL/Rml0rNxfSVYePCyDurU4yjWk04t7nVlk4kIuU8iiMdt+aVtcVt5tl6qSda59kTQa6UYzLlj4mbfJ7KnHutf8iDkVbw7U7dc0SO/2LpXPyrqmyRcT8R41+PZpun2K300lHJur61qEXv6OEu/fvfh59PDgfAnZlZWpzjtVTW8XHl2c9kmnZJexbbGVkzWRkwhDnRXnJTsSXsT8qTiV76zrntv2+EIItsqLiF76zrPtzJR+GyJvFf24/k9ZHpRbVK2qpXhCC+R9nxUtq614QivkfZqx7IsR7AqHFW+t4ft1ev/ALgt4qHT/W1vTfbq1b/91syfEu9f5K2T7FukH497dEXh9Nf9kTggvHj+u0ZfweW/nWWPEeMaR7v/AG2dTglbaL55uW/6RJyNcFLbQ6vblZb/APcZJSfF/Zj+CSv0oFQ3+trtvt1r/wC6TLeKh+1rsfbrUf8Autyh4n/r/JBkexbvccXiHRY6ziwjCUYZWPKU8eck+VuXSVc9u6XT4HaXYc/W8q7C0nUsmn9lqol6N/dlJqHN7t9/caVsYut9XbRYlpx5KxxszV9Hyr68S+Vd8bJ1X11bXV2Tr6P1dmm14pHSfGHE3K1zUqXZusR8/wA+nyPvguqiesWTtknZVh2OhSaTlKcoxnJLt3S6e8sjlXgl7jEw8edlfVCxpfBTqhKSenpFUxwuJ9dyFZKnKtsklH6RmQlTRXFPfpzJdF4JP5ljaNpdOkYNGHXJzkt7LrGtnbbPrKbXdv3L2ew6I8DTx8SNDcttt/JYrqUHve2ZABeJiC67W4aplN9k1VZH3wSf5HNJBxPTy5GHf3WVTqfnCXN+sj58rlx6LmvkwcmPTY0AAVCuDr8N7fpNb/8AK28v86JyDf0a5UanhSk9ozlKmT/jE0vnsWcZ9NsWT0PViJ6AgfVo3wADoAAAAAYAMM1cvPwsKPNkXRi2t4w7Zy8orqRrO4hy8hSrxE8ep9s+jukvDddF7itdlV0+pkNl0K/Uzt6lrGJgJwW1uTt6tUX0j4Ox9yIslqWt5qTnvY0t5pbV49b7XFfl7T4wdPy9Sscad1BS3uyJ7uMX2vaT6uRNsHBxsCiNOPDZfanJ/anJ9spPxKMVZlvc+IlWPXkPcuImcHDowcevHpjtGPVt9spPtlL2s2gDVSUUki+kktIGG0k2+xLdg5mt5SxdPv2f1l6WPWvFz+0/huebJ9EXJnJPpTZDcu76RlZV+/S26ya/C3svyPEdy/z7wfIzl1Sb+T52T6pOQAB4PJ3+GK28vMt7oUQhv7Zzcv1EtI/wvS44uVe1t6fIaX4a1y/nuSA+pwo9NMUb2NHprSB5ZFMMii+ibkoXVzqk4vaSjOLi9n4nqC20mtMnZC7eA8bd/R9SyYLuV1ddm3vjys07OBdT7K9QxJLuc6bIv38smiwAUZeH0Se+kidMH3RAKuBM9tem1KiEe9UUSnL3OckvkSjR9A0zR1KWPGdmRZFK3IvfNbNdvKu5L2JI64PdWJTS9wjyeo1RjykCruLmv07m79ioxf7NMtEqzi5/7c1P2VY39iir4r+yvyR5PoPevg7WMjHxsmm7CsjkU1XxjZ6SucVZFT26KS7/ABPlcG8Sb7OrBS8XkSa/qblg6WttM0peGFi/2UTdEfDaZR3zz9ziog0myBYXAuRKUZalmQVafrU4alvOPfGVk0n59Cb42PjYlNWPjVwqpqioVwgtoxS7kewLtONXQvoRNGEYdkY8SA6pwnruZqOflVPC9FkZTthz2zU1ByTe6VbXd4k/B6uojckpHZRU+58xTUYp9u3U+gCZLXY9GH2FdYHDPEVGqafkW4tKoqzoXTksiDcYKTluorqWMCvdjwuacvY8Sgp62Y/wIhxdpWr6ldpssLGd0Kar1a1ZVDZylFpbWSXgS8yeralfX0S7M7KKktHE4Xw8zA0jHx8ur0V8bciUoOUZbKVkpLrFtfM7YB7hBQior2EUorSMFY1aPrq1mm6enZSp/SyulPlXIq/T8/O3v4FnjYivx4366vY8zgpdzC7Dka9qem4GFbDMi7XlQnTXjQ29Jfutnsm+i9p1yquKMi3J1nUuaTSonHFpX7nCEUunm237yHNu8mrj34OWz6Imlhadqee7JYGLdbGl9ZVzUVF90VZNx3fl4G+8PjWrZRo1lJdirtnLbu/a2Fk6fh4+BiYuLjwjGumuMUorbd7dZP2vtNoq1+GpRT6mn9iGOPxyyqp5PGOGue63WqYrtlb6ZwX4nJOJ2tE4uzXk4+JqbhbXfONVeTGMYThOXSKsUdo7Poui7ydSjGUZRkk00001umu9PcqDWqa8PU9WpoiowpybJVRS2Ud2pqKXgQ3wsw3GcZtr7nJxdWmmXAD4pk500yfbKuEn5tIG31e5b78nK4ix3fp05xW8seyNyS+79mX5kM7evmWTbXC2uyua3hZGUJLxjJbMrq+mePffjz+3TZKD9qXf+XxMfxOvUlYjMzocqaPMAGOZoG7TTT2aakn4NPdM+q67brK6aYOy2x+rCO2/Tve/cdmPDOpOClK/GjLbfk2m0nt2cyJq6LLOYLZNCqc+YokGk6hXn40Jdl1aUb4PtUtuj8n3HRK/a1LSMlb81N6XTZ80LIdj69jR0pcT5+yUcfGUtlu5Oxpvy3X5m1VnRjHpt4aNKGVFLVnDRLgQmfEOsz6qyqH4Kl/5tmpPUtWt+3mZD/DPkXwgJeJVLsmw82tdifTsrgt5zjFeM2kvmadur6RT9rLpfsrl6R/CG5A5OU23OUpt9rnJyfxbPnou9Igl4m/4xIpZz/iiW3cT4Ud1RRda13y2rj8938jkZOv6rkJxjOFEOxqjpJ+c3u/hsc+jHy8npj491u723hHaPj1m/V+Z2MXhrNtcZZdsKI98K/rLNvxdIr5kfm5WRxHhfY8eZfdwjhbzlPrzTsnL2ysnJ/M7un8PZN/LZnb1VdGqYv6ya8Jy7iQ4Wl6fgr6ipc7XrWT9a2XnN9TdLVHh6i+qx7ZPViJPc2edNNNFcKqYRhXBKMYxWySPUA1EklpF7j2AAZ06Yb7fZ3kG1nPWdlvke+Pj710vuk39qfv7vI6Wt6zGaswcSa2e8ci6L6bb9YQf5sjf+fFGFn5Sl/bh29zLy70/oiAAZBmgw3sm/BPbz7jJu6Ti/S9Qxamt665fSLX+9re6Xx2PdUPMmoo9wj1tImWmY/0XBw6H9qFUef8AG/Wl82zdMLp0Mn18I9MUvg+hiulJAAHo9AAAAAAGCquLpRet6vu/swoT9n1ES1j4cISe7jF+aTKuTj+fFR3ojsh1rR4actsDTl/0mP8A2cTaMewyWIx0kvg9pa4AAPR0AAAAAAAAAAAAAAAAAAwyr+LMK3G1fKscWqs7lvpkl0c9kpxXtT6+8tE1M3AwdQqdGZTC2ptNKXbF+MZLqviVMvH/AFFfQu5FbBzjpEb0rjDTZUU06i50X1wUHYoTsps5VspKUd5bvv3R2FxJw1Jb/pLH/lOSfwaOLfwJp8nvi52VSvu2KF0V5bpP5ms+A7N1tqq29uKt/wC0KcZ5lcdOKZGnbFa1s6ubxjoWPXP6LOeXfs+SFUJRhzdylOaS2+JB8PGy9d1aNbTnPJyPpObYlvGunm5pOXn9mP8AgSqngTDTTydRyrFuvVpjCleW/V/Mk2n6Zp2mVKnCx4VRb3m1u52S+9Ob9ZvzPLx8jJmndpJHOidj+vhG2kkkl3IH0DX47FpcGGRfiXCanVmwXSW1V+3il6kn+RKTxyaK8mi6ixbwtg4S/U15dpFfUrYOJFbBWQaK5H+fP2Hrk41uJfdj2/aqltv3Si+sZI8j5OcHFuLPn3Fx3Fkk4Wprbzr3s7E66YvvUNubf3/qJP3EE0rUZadfKck5U2pRuiu1bdk4ksjq+kTr5/plCXhKW0l5wfX5H0GFdX5XTvTNnGsi4aNPiSquen+kklz03Vut9/rPlaIednW9WhnOFGPv9Grlzym04uye2yaT7kcdNJ7uMZJftZdU/NGZnWQnbuPJQypxnZtH1VTkZDcaKbbWuj9HByS85di+J0qdA1KzZ3TxseP8JYpz2/DDp/SNCeVlzjyu6agklGut+jrSXhCOx4vd9W237Xu/mQQlVH1LZFGVa7rZJ6eHNPW3p8yy1vurlCuPy3fzOpRpGj473rxanJftp/WS+M22QPZeB9KUl2TmvKUl+RcrzKodoFmOTXHtAslKK7Eku5JGfgVzHIzI7cmTkLw5brF+TPWOo6rHszcn32N/mWl4nX/5J1nQ+CwQQNaxrKXTNt96g/m0P0zrX/O2fCH9x7/qVXwzv62HwyefAxKUYpuUlFLtbey+ZAJ6nq0/t5uR/Jm4/wBU1pztte9tlk33uc3L82Ry8Th7ROPOj7Im2Vrmk4269MrZ90Mf13v4Nr1V8SOZ+u52apV1p0Y8ujhXLec1++n/AHHK7OxAo3Z1lq0uEVbMuc+FwOmy2935bdQAUe5UAAOHAS7hvC9BiyyrFtbmOMo79qpjuoL39X7yPaZgy1DLrpf7DDa3Ia7FBftPOXeT2KjFRjFJRS2il2JLobPh1HPmM08Kr+bPoAG4aYAAAAAAAAAAAAAAAAAAAAAAAAAAAAAAAAAAAAAAAAAAAAAAAADAAOLrmmPMqV9Mf9Zoi+VLtsh2uH617SG+zv8AB93j8Oxll+JF9d0hxc87Fhum+bIrit9n+6RX5mRn4vWvMiZ2Xj7+uJHAPauzufiDC3rhmX2AAOHAAAAAAAAAAAAAAAAAAAADoBmMLLZQqqi52WSUIRXfKXQx13WybbaSjFbuTfRJe19xL9D0f6JFZeTFPLsjtFbb+hg+vKt+/wAS1jY8rpfYsUVO2Wjc0rT4adixr6O2b575pfam/wBS7EdEA+nhFQSijcjFRXSgAD2egAAAAAAAAAAAAAAAAAAAAAAAAAAAAAAAAAAAAAAAAAAAAAAAAAAAYfY99tjIAItrGhyi55WDD1XvK6mPc++da/NEbXv9/QsxnD1PQqcpyvxnGrIfWS2ars/El3mRl4PV9dfczsjE6vqh3IgD0upyMeyVORVKuyPXaXZJeMZfZa8jzMOUXF6a0zLaaepAAHk4AAAAAAAAdAABwAAHQDMYzlKMIQlOc5KMIQW8pSfYkj2xMPLzrPR4tfNs0p2PpVX3+s0TDS9GxdPXpP2XKktp3SXZ7ILuRcx8Odz2+EWqcaVj2+xqaNoixXHLykpZO29cO2FKfh7fE75kH0dVcao9MTZhBVrUQACU9gAAAAAAAAAAAAAAAAAAAAAAAAAAAAAAAAAAAAAAAAAAAAAAAAAAAAAAAAAAAGvk4mLmVuvIqjOO+63XWL8YtdSM5vDeTU3PDl6aG/7HZsrIr2S7GS4Fa7Hrt9SIbKYWd0VrZXbVN121zrsXbGyLi/dufJY1+NjZEXC+quyL7pxT2+JxsjhnAnu8eyyhvu354e6MuvzMq3w2S5rZn2YUv4MiQOzdw3qlfWudFy9jdcn7n0+Zo2aZq1banhXvbvhFWL+g2UZ41se8SrKiyPdGoD1ljZkH6+LlLzpt/uPPln19SxtdyhPf4bELrku6I+iS9jAPWONmz25MTKlv3qmz+496tK1i17RwbUvG1wrXwlLc9Kmb7JnpVSfZGmDuU8M6lPZ3XUUp9qgpWy+eyOrj8NaXVs7vSZEl1+ul6m/4Y7L8y3XgWz78fknjiTl9iJU0ZOVLkxqbbZb7PkjvFfik+iO/hcMt8tmoWJ9j9BS3y+U7O1+4ktdVVUYwqrhCEeijBKMV7kehp0+HwhzLll6vEjDl8nlTTTRXCqmEIQikoxgkkl7j1ANFJJaRc0lwgADp0AAAAAAAAAAAAAAAAAAAAAAAAAAAAAAAAAAAAAAAAAAAAAAAAAAAAAAAAAAAAAAAAAAAAAD4AADbyG3sQA0Bt5AAAAAAAAAAAAAAAAAAAAAAAAAAAAAAAAAAAAAAAAAAAAAAAAAAAAAAAAAAAAAAAAAAAAA//9k=" vertex="1" parent="1">
          <mxGeometry x="388" y="274.00000000000006" width="99" height="49.71" as="geometry" />
        </mxCell>
        <mxCell id="NF1J7Xzm1R2NQvQhPd1J-7" value="&lt;b&gt;Server&lt;br&gt;Java Spring&lt;br&gt;&lt;/b&gt;" style="text;html=1;strokeColor=none;fillColor=none;align=center;verticalAlign=middle;whiteSpace=wrap;rounded=0;" vertex="1" parent="1">
          <mxGeometry x="332" y="302" width="60" height="40" as="geometry" />
        </mxCell>
        <mxCell id="NF1J7Xzm1R2NQvQhPd1J-8" value="" style="image;aspect=fixed;perimeter=ellipsePerimeter;html=1;align=center;shadow=0;dashed=0;spacingTop=3;image=img/lib/active_directory/databases.svg;" vertex="1" parent="1">
          <mxGeometry x="299" y="86" width="50" height="49" as="geometry" />
        </mxCell>
        <mxCell id="NF1J7Xzm1R2NQvQhPd1J-9" value="" style="image;aspect=fixed;perimeter=ellipsePerimeter;html=1;align=center;shadow=0;dashed=0;spacingTop=3;image=img/lib/active_directory/databases.svg;" vertex="1" parent="1">
          <mxGeometry x="420" y="84" width="50" height="49" as="geometry" />
        </mxCell>
        <mxCell id="NF1J7Xzm1R2NQvQhPd1J-10" value="" style="dashed=0;outlineConnect=0;html=1;align=center;labelPosition=center;verticalLabelPosition=bottom;verticalAlign=top;shape=mxgraph.weblogos.mongodb" vertex="1" parent="1">
          <mxGeometry x="479" y="31.999999999999996" width="29.2" height="56.2" as="geometry" />
        </mxCell>
        <mxCell id="NF1J7Xzm1R2NQvQhPd1J-13" value="" style="shape=image;verticalLabelPosition=bottom;verticalAlign=top;imageAspect=0;aspect=fixed;image=data:image/jpeg,/9j/4AAQSkZJRgABAQAAAQABAAD/2wBDAAsJCQcJCQcJCQkJCwkJCQkJCQsJCwsMCwsLDA0QDBEODQ4MEhkSJRodJR0ZHxwpKRYlNzU2GioyPi0pMBk7IRP/2wBDAQcICAsJCxULCxUsHRkdLCwsLCwsLCwsLCwsLCwsLCwsLCwsLCwsLCwsLCwsLCwsLCwsLCwsLCwsLCwsLCwsLCz/wAARCAEOAPMDASIAAhEBAxEB/8QAGwABAAMBAQEBAAAAAAAAAAAAAAQFBgcDAgH/xABXEAABBAECAwQGBAcKBxADAAABAAIDBAUGERIhMQcTQWEUIlFxgZEVMqGxFiNCUlNywSQzNUNigoOSorImVXR1lKOzNDZERUZUVmNzdpO0wtHT8NLU8f/EABoBAQADAQEBAAAAAAAAAAAAAAACAwQFAQb/xAAsEQACAgEDAwMDAwUAAAAAAAAAAQIDEQQSMSFBURMiYTJxgTNCoUNEkcHR/9oADAMBAAIRAxEAPwDraIiAIiIAiIgCIiAIiIAiIgCIiAIiIAiIgCIiAIiIAiIgCIiAIiIAiIgCIiAIiIAiIgCIiAIiIAiIgCIiAIiIAiIgCIiAIiIAiIgCIiAIiIAiIgCIiAIiIAiIgCIiAIiIAhIAJJ2ABJJ2AAHiSs9qnVeL0tTE9kGa3PxClTY4NfO5vUudsdmDxO3uBPJcsjr9o/aPI6aSb0fD94Q3jc+DHM4XfVjiZu+Rw58yHewuCA6rd1loug5zbOcocbd+JsDzZc0jwc2sHndVp7S+z8Hb6VeR7RSvbfbFv9iz0PZbpHHRsfm81O53X98r0YXe0Br+N/8AaXsNOdi8fquLJCPyvTMi77YnBqkoSlwiLlFcs00GvdB2C1secrNJ6d/HYrj4unjaPtV5UyGLvtLqN6naaBuTUnimA9/duK527RnZJd3bXyBrOdvt3eR4XD3C2HKHY7JIXAWMJn3At5xekRtfu7/KKzht/UXji1yj1ST4Z1pUeS1dpDEufHezFNkrCQ+KJzrEzCPB0dcOcD7wuXXtPdsscceIfbu3KViQMMkF8SRbcJHDLLKWzBgHUHl7yrah2V4KjXjsajy7i/YGRleSOrVa7bmzvZgXu9+zfcvD0v39qWhmu2bPdePzmU5AP7ZB+xSK/aToKchpyb4XHoLFS00fFzWFv2qlGF7Fa/qGKKRw6u77Kzb/ABY7hX4dP9i9r1YwyB7uQcLORh293pDuD7FZ6U+drIepDjKNBf7QtDUGgnKMtPLQ5sePY+w4g/y2juwfIvCzNntixLCfQ8Ndmb4GzYhrn5RiT71a43s37Pml1iNsuSjLt2d9d72FnkPReAEe8lS78mk9NODW6WaxvIR2YKFJsEh8B35Jdv7+ajGLk8JdT2UlFZZkD2yWN+Wn4gPYb7yfmIR9yk1+2Oo4tFrAzRt39Z1e6yU/BkkTP7yu/wAOcSOQwr+Hw9av93Cvl2e7Psj6uRwcQ4uRfPQqzAb+IfFu/wCxWvT2r9pWr63+4nYztH0Tk3MjN19KZ5AbHko+5G/nK0uhHxeFrmPjkYx8bmvY9ocx7CHNc08wWkctlzizoDs+1BFJLg7Xoc+xP7kldNG0nlvLVnPGB5AtWUfB2g9m04ljk9Iw7pOZbxy46XiPSRh2dG88ufLfwLgFS1joy1PPB3RFndMasxOqKplrEw24Wg26UrgZYSeXE08uJh8HAe8A8lol4ehERAEREAREQBERAEREAREQBeNqxXp1rVuw/gr1YZbE79vqxRNL3H5Beyw/ahkHUtK2IWOIfkrdajuDsQzd1h/wIZsfegMHhKNrtG1VeyeT4xjKpZJNGHEBsHERXpMI6b7EuI26OPIu3W51FqcY8nD4RsUPorBXlmiYwMrhg4e4rsA4Rw9CduXQcxu2JpFg07oB2RDeG3fE10E7E97O8Vq5G/gAGu28z7VjSSSSSSSSSSdySeZJJW7SUKb3S4Rj1NzgtseT6kkmmkfLNJJLK87vklc573H2lziT9q+ERdfBywpuJgylm/VqYyWWG1M47SRPfGIo283yvLCOTR8zsPFQlvdKQV8Pg8nqK00F88bzDvyPo8TuCNjT/wBY79nsVN9myGe/Ytphvlgsc3n26eqVsfDM+5lO5aO9tEPcxvTvp+Hbdx/JH7B63OLdy7fmdYuTyTzO39aU78IJ32Y0eqB5ABflqzYuWLFuw8vnsSOkkd5nwHkOg8h5LxXlNCqXyStudj+AiItBQetexaqSCarNLBKOj4Hujd7iWlbDFa04x6Fn4o5q8o7t1kRtd6p5bWIQOEj2kD4HqMUiqsqjYvciyFsocGvz+lGQQuymFPfUHN758EZ7wxRkb95A4b8TPaOo8x9XIft9i0emdRyYeZtey9zsZM/8YDufRXuP77H5fnj49frSNXYFlGUZOi1voFt4MjY9uCCd/rAt25cD/D2Hl4gCmucq5enZ+GWzgpx9SH5Rl4pZoZGTQyPjljIcySNxY9pHiHN5rc4LVkV0DFZ5sMjbDTA2xKxhhmD/AFe6tMI4OfTfbY9CB1ODTkQQRyI2IKttpjasSK67ZVvKJeq9OZHQ2Tq6i09JIzHmcAN3c/0SR3WvNud3RP5gE+489i/rGns1X1BiMflYW8AsRkSxb79zOwlkke/kRyO3MbHxWXrOlz+g8/TsudLNWq3a7HOPE57q8bbVcuJ8R6o+Cg9j87nYbNVj0hyTZW8+nfQMBA/qrgzi4ScX2OzCW6KkjpiIiiSCIiAIiIAiIgCIiAIiIAuV9scpbU01DudpLN+UjwJjjjaD/aXVFyrtjjcaumZtvVjnyEZPnIyJw/ulAWuominpDStFnINjxsZ8xDTJ5/HYrDLd6v8AxmA0vM3mw9weIdDx1OIfcsIu1o/0jk6r9QIiLYZQGSSFkUf75K9kMf68jgxv2lb7WkkdDFYTDQbCP1SQOR7qoxsbQR5kg/zVksDEJs5gYzzBvwvI/wCyBm/9K1mqMRnM3m4Y6VU9xXpQxusWHd1XD3ve92zti4npvs0rHdJerFS4XU1VJ+nLby+hgkW5h7Pi1gddy/AfEV67WsH8+ZxJ/qheF/Qd2GF02OutucLS7uZY2xyPA/RvYSwnyIHvU1qqm8ZIvT2JZwY1F+kOaSHAhwJDg4EEEciCDz3X4tJnCIv1rXucxjGPfJI9scbGAue97iGta0DxJ6ID8W90lehyuOvadv8ArtZA70ff6xquOxaCfGMkFvkR+ao9LQwZALObyIqjYOfDXMQEW46SWJt27+3ZvxPVWeMwujaN+pao5vitRPLY2HI1JBKZGmMxljW7nffwXPvurnFpco201ThLL4Zz+7UmoW7dOf8Afa0z4nEAgO2PJw8iNiPeo61uvIIo8vWlaNnWKTHS+bo3uYD8th8FklrqnvgpGayOybijd6Q/F6d1TM/6gfbJ36bMpNJUDseiIxGcn25SZGOIHziga4/3lJrvGM7N87adyNurk3NPTY2nGnGfuKndmFP0XSVGQgh16zcuOB6/vno7T8QwH4ri6h5tk/k61CxWkbZERUFwREQBERAEREAREQBERAFg+1WmbOlnTgc6GQqWXHxDH8VY/a8fJbxVGpqP0lp/P0g3ifPj7PdN67zRtMsf9oBAZGSQZPs4wNpp3NSvjw4+PFWcaD/2rFrVdnkn0ronOYo+tJWlvQxMHg2eITxn+txfJZX/ANl1tDLMGjmayOJJhERdAxF1pTb8IsJv+lsbe/0aXZaXVepsrRuSY2jwQBkUT5LGwfM7vG77MDhwtA9xPu8ctpvf8IMDt/zsj/UyKfrb+Hpf8jqb/JyxTgpXrcu3+zVGTjS9vkgYuXG3cpE7UU9iaq9kgL5Z5thMduAyuB4+Hr0I8N+Q5auOxp3C5jDwYS458N+cVr9WKw6xUayQbRyhziQHh2w5HoTv4b8+X0yR0MkEzTsYZoZgfON7X/sVllKn36eOxCFu3t+TR60psq5t8jGgNuwR2iGjl3m7o3/MgE+9ZpbvtBjbvg7A6uFyIny/Fvb+1YRe6aW6pMXx22NBaTRNeOfPwveAfRadqzGD+k3ZCHfAOKzavdI2m1dQY/iOzbTJ6RPhvI3jZv8AFoHxUr8+nLHgjVjeslpezGMdqXJHOVHXKVRzqlKIgSx1XRnZ0ggeQwlx6k8x90JljHZbVOCOOx8VSq25X2YyNkbpO4LpzJIyP1QeW3w+XnrCoauduu22ZbbFbj8+JvA/7QfmvnSAB1Hid/Btxw/WFd4H7VRGMVVvXgucm7Nj8k3XcokzMEY/iKELXeTnySP+7ZZM8RBDBu92zWD2vceFo+ey0GsSTqLJ7+DagHu9HjK8tL0TfzuOYW7xVCb8/s4YduAH3uLfkrK2q6U/CK7E52tfJZdoz/ovSWBwEG5muT1KoY3rJHUYHPIH65j+a3+IotxmLxWObsfQqVasSOjnRxhrnfE7n4rnuU/wk7TMRjh69LTcLbdnY7tE0fDYcfi4xMcPIrqC4beXk7CWFgIiLw9CIiAIiIAiIgCIiAIiIAhREByjQo+g9bay084cEUxllrNJ6try97EAPNkhPwVZmaho5XKVNtmxWpe7B/RPPeM+whWms/8AB/XektRgBle53cFt5P6M+jTOP9G9u36qm69pdzkKd1o9W5XMbz7Za523+ILfktuintsx5MmrjmGfBj0RF2TlF3pSPvNRYYfmPszH3Mryc/tC99Zv4tQXm/ooakfx7oP/AGr40c5rNRY/i2/GQ3Ym7/nGLjH3FfOro3s1DleLfaQ1pWE+LXQRjl8iPgsv9x+DR/Q/JRL5eCWOA6uHCPeeQX0rHB0jkcxiqnDuw2GWJ/KCuRK4n37AfFaJNRTbKYrc0jW6/IbWwEZ+tx2T/UjjafvWBWt13cE2UrVGncUqw4x7JbBEhHyDPmskqNKsVIt1DzYwv1j5I3xyxOLZYnslicPyZGOD2n5hfiLQUHQNSxx53T+OzlZv4yvH3srW9RE8hszD4+o4b/ArLaal7nUGCd+dadCf6WKSP9qu9EZONstnCWuF0F0SSV2v5tMnDtLFsfBw5/A+1V/0VLidWYmkA4xjJ1Jqrjv69YvL2nfyAIPm0rFD2KVL+cfY2S97javyemt4u7z0j/09SrL8QHRf+lWulhXwen8xqS4NmyRvnYNwHOrVt2xsaT4vdvt7wvLVtKXK6mxGOgJD7FGFkjh/FQiaZ8kh9zenmR7VF1/PJbk01oTEbMkvSVnWWs3LYakXqxNeAfqjZ0jvH8WD4rNbbimMPJfXXm2U/BK7MMfZfTzOpL3rXM9cle1xHMwxyOLnDxHE8u/qBdDUejTrY+nSo1m8NenXirQgnc8EbQ0bn2+1SFgNoREQBERAEREAREQBERAEREAREQGK7S8Scnpi3NG3efFyMyLNhzMTAWTDf2cJLj+qoQnOptA46/8AXuUIWPm6F5lqbwTk/rN3f8Qt/NFFPFNDMwPhmjfFKx31XxvBa5p94K5doJ78DqHVGi7p3jfLJZoiTbaUNaN9h7ZIy138wqUJOElJdiM47ouLM0in5fHPxeRu0Xb8MUnFC4/lwP8AWjd8uR8wVAX0UWpLKOE1teGe1SzNStVLkO3e1Z452A9HFh3LT7xuPit3qfHsz2Po57Fh0rmQfjI2Dd8lfcuIDR+XGdwR7/ZsefEgAkkAAEknoAuh6Tr2sLir+Uy1s1MfIwWW15+TYI2/8IfuOIOfyAaPLkSdm5NU9mLE+q/k06dbs1vhnPBz5jYjw2W60VWhpUMzn7I2aGSwxE9RXrDjkLd/zncv5oXyLfZXqbisjIV6Vp275uOYY+YnxL2TfinH2kb+9aSxgYpsDDhKNt0FZrIW98WNndLG13enfYtG7jsSR+1Z7dVGyG3jPJfXp5Vy3c4OU2rM1yzZtzHeWzK+aT2AvO/CPIdB7l4q3zWAyODkjFgslrzEiGxCHBjnDmWPa7mHeO259/LlULpQlGSzHgwSUk8S5CIimRPuKWaCWGaF5ZNDIyWJ4/JkYQ5pXWqP0bnmYLPbAT02WNmgjaOWRndysk35+qdy337+K5F05nw5ldC0TjMzTilv2JY4cfchEjasjXGR+w9SwSSGt5eGx3G2+23LDrIrbuzhmvSye7bjoTa89Oo3UOssgSyCSLhp7jZzcbXAbHwB23rTO9YD+U0Kh7PqFzLXs1rfKM/dGTllgxzXcxHXB4XuZv4DYRtPXZjvzuc/X2C1VqKnRp4iSl6A13f2Y5JnRSzyjlHs7hLCwAk7cXXn4DauoU+2iCvWpQu09UgrxMgh42xbMYwBoAELHD+yuTKW55OnFYR0pFzy9p3tWtVpHu1hELTWkx1qcPokbyOfCJ4msd7t2r47MtSZzMMzGPy0r7EuO9HdFPKB33DIXsdFK4DnsW7gnnzPPlyiSOjIiIAiIgCIiAIiIAiIgCIiAIiIAuZ9pONuULGF1ljBtaxc8EVzhB2MYfvDI/bb1dyWO9oeB0C6YvG1WrXK1mpaibLXsxPhnjf9V8bwWuaduaAxWahrarweO1Dim8cscBe+IetKYv4yAgflxu39/Pbfcb4HkdiDuOo2VnXtZjsvzU9OzHPb03kZTLC5m3E4DYd5ETs3vWjYPbuN9h05EaU2+yHIO+lJL1Bpce9mgknlr9488z3lM7En27N2Pmt2n1SrW2Rjv0+97okTSen47W2byYYzG1uKaq2chscxj9Y2JS7l3bdtxv1I36D1oGphrPXkrIMJRli01DJxQ2bT21Y78g5CztKQ8s/RgNPtPM7Mrdba7dlazMdhIZmYITCGe0+J8TLzouF/o8Y2HCwDYkcidxyA5P6Pjs3jdU42L6Dy/oNngb3kMbKzrNbZuxjfDMD6o6At2HLkVnttdsssvrrVUcIx2A7Lq+Mmiyepb1OWGoRMasfEKhc0gtdYmmDd2jxbw7HxJHJ37qjUjspP3NaV7MZVdvGfWYZ3j+OcBsdvzB8ep2bdW9FZ+7IDZz/pDQfVNmGw8t/VYZS0fBfbMHpHSrW5LOZGOSWI95B6XwsjD2+MFVnE9zh4fW268tt1oqdNXvbyyixW2+1LCPW6y7NoUPyjX+mR14JgZuczSJwI3Sb8+ItI4veVzpdJvZivntFX8rXikigtB7YWTFvecEV4QBz+HcAnh323O2/U9VzYrVo3mLfyZtUsSS+AiItxkP1rBI+GMjcSywxEe0Pkawj7V0nWlDNXYMZBja0s1aN0zrMcD4x6wDGxbse4bgDi26rBYiPvsthITzD8jT39zJRIfuWq1dqrVWN1HisJp+tVtTWsf6UYJ4uN0khfMdg7vGbbNYT1XN1dmycWuxu00N8JJ9ytoU+0WqGw0q+TgjHJrHy1xC33NmeWj4BaKniNeW3NOUzslSD8qOk6J9lw9neNjDG+/wBZZqTUnbVLvGzTkMLvB8dGXl8ZZi1QpsF206jDocnbNWrINnsmtV68D2H8l8NAFx/nNWSWpcuy/wAGqOnUe7LzVOu8Vp+pLh8FObmVLXRGx3rrLKj3bh0kszy4vl9g3Ox6/V4XWnZ5pufAYeSa6xzMllXss2mP344o2g91C/f8obuc7zdt+SvDS3Zxh8DNFeuS/SGSiIfC98YZWrPHR0URJJcPBxPmACN1u1mNAREQBERAEREAREQBE+afNAET5p80ARPmnzQBE+afNARb+Ox2UqzU8hWis1pfrxzN3G46OaeoI8CCCFjh2V6IFjvizIGPi39GNs9xt+buGiXb+kW7+afNAVrsFgH45mIfjaZxrB6lUxN7pp5njaOodzJ4t9+fXmsfd7KNKzPdLRsZKg/qxsUzZomH2gTNMn+sXQvmnzQHMT2b6nYDHDrnJNg6BhbbaAPZwttbKvz/AGe4vCacz2Vs3rmSykUEPdTzkxxxudYiYXtjDnOJ2JHrPI59N+Y6981m9csMmktSt9lIv/8ADkY/9iAy+B59lcY/Nbb+zJucsktZpj8Z2Y2GDrG3I7+9toyrJrraH6H9zmaz6l9giIugYi70pF32osOCNxE6xYP9HA/b7SFYt/dna7J4jFYzYeO3FTA++VfOg4RJmrEpHKvjpefsdNLG0fcU0b+7df8AaDkfrNgdYpNd1GxtNjaR8Ilxta82Y+Dq6RYrydP5InzT5rEawifNPmgCJ80+aAInzT5oAifNPmgCJ80QBERAEREAREQBERAEREAREQBVOpIfSNPakh2JMmIyLWgdS/uHlv27K2Xy9jJGPjeN2Pa5jweha4bEIDmHZ270zQ2oqY5vjnycTG+P4yrHI3l791l+oB8lY9nV5+n9TZrTV94YLUr60ZfyBu1HuawAnls9pdt7fVHipmpcHPh7sz2Ru+jp5HSVpgCWR8R3MLz4FvQb9Rt57dHQ2JNwfcwayDaUkUSL5MkQ6vYPZ6zeatcZgc3lnsFWq+OAkcdu010ddg8SOIAuPkB8R1XTlJRWZM58YuTwjT6FaypS1Flp/Vgj4GF3LlHUidPIf7X2KF2SQySU9TZWQHjv5NkbifExMdMftkXnrfKUdO6fg0jinmXI3o2QTtjHFM2CV3FI+QN/LlPIDbo49NhvsdIYZ2B0/i8fIB6S1hnubbH90TkyPbuOXq7hv81cC6fqTckdqqGyCiX6IiqLQiIgCIiAIiIAiIgCIiAIiIAiIgCIiAIiIAiIgCIiAIiIDnWvdCzZmQZrDbNy8bWCeHiEfpYjGzHxvO20jdgBueYA5gt9agxvaVm8QDitV4qew+JojdI9ncXOAcvx0Uw4He/du/juTueyLxsVadtnd2q8E8f5liJkrfk8EIDmZ7TdAwDvamBt+kdR+48fDz85GyE/Yo79adoupgYNM4GSpDKCPSyDK5o6Hhszhldv9Un2Hkulw4XAV3h9fFY2F45h0NOsx3zawFT9l7nPJ4klwYDSmgBi7QzWds/SGac90zC5z5IoJXdZC+T1nyfyj08NyA5b9EXh6EREAREQBERAEREAREQBERAEREARE/8AvRAEREAREQBERAEREAREQBERAEREARUWV1Pi8ZYbSDLNu+7barSj7yQEgOAf5kc9hufLnzh/hJnyOIaRynB7TKwP2/U4N1YqptZwVuyKeMmpRZ/G6qxd6yKM0VmjeLuFte8zgLn9eFrvb7AQN/DdX5IHM8h4qMouLxJEoyUllH7um6zNvWGLZO6pjq9vKWm77soR8cfLl++c+XmAR5rzOps8wccukco2Mcy5krZHAe3gazdTVM/BD1YeTVIqXFalw+WeYIXyQ228XFVtN7ubdv1uHmQdvEb7+Sl5fKVsPRlv2I5pIo3RtLYAwvJe7hG3G4D7VFwkpbcdSW+LW7PQnovKtO2zXq2GAhtiGKdodtxBsjQ8A7ct+a9VAmEREAREQBERAYjtGltR4/TzK9q1W9J1BTrSvqTSQyGOSORpHEwhSToTH/4+1X1/xvJ/+Kg9pkkcWP01NI7hji1HRlkIBOzGMkc4gDn0CnntE0Puf3fY6n/i7If/ABICnzuFzWlKUuewefzE4oOjluUctZNuvZgLwxwAIGxG/Py3III57zH3IshQx1+IFsV2rXtsaTuWtmjEgBPlusHn9SjVOPsYDS9O9cnyXBBPblrTV6dSDjDnvkkmaD4bdPHxPIzrFnMQ2sNojTliOCWhiar8plJYWy+iVo2thYIoneqZH8jsfzveWAbfdFlHaWzcbTLV1lqAXAOJrrZq2KvH/KrGMDby4l84vU1443VDMpXjGa0vFOb8UBIhstZC6aKaLfmA8A/fy32AGt9qLD4fF5zUGMx+XyWqcxHJfhbaZBhJK9OrXjkG7YuUbnEt8dz15c9tzJrDVOEzuKoSW7+ZweSjsNNizA19nGzxN4gZ7ELA0sf0HEB/Z9cC3uZwVM7p/Cejcf0vFfl9I73h7j0WPvNu74TvxdPrDbzVwub5nHZv8M9IxfhDa7+3HnH1J/Q6XFRjbGXmKNnBwuBHqkuBPJWF29qh2QoaQxOT48hHUffzObtVoTJXrvlPAyOBgEXHsQBy6bdOZaBuEWVGl83C0y1tY5/0wDdpuGrZqF38qsYxy/nKFp3OahvZ7V1PKbQuxlKk0VYgx0EVkNc2SWBxaHlkmwe3iJ5OA8EBt9wi5rpp+tdXYyrYnztrH063eQPmqRQC5kbQkc98hfwhrY2AtY0Ac+E7q0lt6gdkKmj8Pkn9/j6MdnN5u7G2xZjZId44443+oZHAjmd+R8kBtk9iysmms5Cx8uP1fnRdA4mfSLqtqm5458L4O5GwPTkeXmpemM3ay9a7DkIGV8virb6GThjO8fetG7ZYjufUeOY5+B8OZApdGCKXJ6rs2A05D0rhPF9dsTpJS/h357Fw2PuC3HJZfJaVklvSZTEZCTH3pCXy7AuikeduI+qQ4cX5XUH2e2P3vabQ344Mdk2DxY5jJCPd+K+4rVYla90WvszNButbWmStX4W1lalaXHwtfkq07e6f3jInCIgk+u8gcjwkc/vULU93J2BgtOwOEV7LMhN8tO4Yxw2c3dv5O4eXe0M26OXvDrJkMzK+bxlvGSO2AkkDnw+bju0O29pHEopc2TtAruLg5jcaXQEEFpBrkgtPTxcpwUo9JrhNojNxl1i+WkzUYvFY/EVWVacQYwAGR52Msz/GSV3Uk/8A82AU9EWJtyeWakklhGY1Tgo7taTJVN4cpRZ6RHND6skrYvW4SRz4h1Yfby6FVGXyhzGiH238PfiavBaDeQ76OUAuA9jhs4e9b0gHkQCDuCPIrksBd+CGpmD97Zl6vB7ObY99vkFu0/uSz2a/kyXLa3jumdOxX8F4j/N9P/YsU1QsV/BeI/zfT/2LFNWKXLNUeEERF4SCIiAIiIDC9pH+49K/958d/dkW6VRncDSz8eOitTWYm0b8OQj9GMYLpYgQ1r+8a7lz57bK3QBYzHObU7QdWQ2PVkyuMxdugX8u9irM7mRrN/EHfl/JPsWzVPm9PYzONqusGxBcpvMtG9Sk7m3VeepjeAeR8QR/7oC4WAo3sezUfafm5vWxFSvjaFqRsZmZLJBDwTN4Gg78PR3vVo7TGoZ2Gvb1nmX1HDhcyvXpVrBb02NmNhf71dUcJh8djfomrUjbQdHJFLE7d/fCUcMhmLuZLvEn9nIDO1dH4WSvXuafzGexVW5FHbgjx96QVnMmaJATBOHDx6brwntaq0vk9OQ3Mx9M4vMZGPFubZrRQ260s3Jj2SQ/WA8dx9+4nwaTyOMYYMHqfK0KQcTFUmhp34oASTwQm0wuDfLdSKmlmNyFTK5fKX8vep8XoRudzFVqucNjJFWrtazj8zv0HiAQBBzP+/vs9/yXP/8Al15V5Y8f2h5lloiMZ7E0JMc95AbK+rtE+Fp/O5E7eXnzu85p2rmpcZZNu7SvY18z6duhIxkrO9aGva4PaQWnYeH3neov19Py2MJpHUAt5CxYrWLlLJ3XRxyPnbK5xjjmhLXB4G2wA22AHPxA2RPInw8+S5/pzIVMpq/tDuVHNkrPp4+KKVhBZKIGPgL2kciCWnY+IVuNE4tzTFaympLlQ8nUrmXtPquaPyXMbwkj4qv0sypb1Fru5jmxtxLGYvC031w0QF1SvwSNg4fV2by225cx7UBK7NwBo3BbDqb5PmfS5uaqosY6fXGsakuXy2NluV8Zkaf0bPFAbcDIu5fxd7G/fgPIbdOa2WDw9TA4yniqsk8kFXvuB9ksMp72V0p4ixrW9SduS8s1p/G5v0WSZ1ivdpuL6V+jJ3Nus49eCQA8j4gghAQfwVmP/KvVv+n1v/1lE0vWw7Z9X2cPkMtetvsMo3beTdFJHJcqRva0wvZG0HbiAPlt4Hn7P01qGyx1a7rHLSUnjhfHXq0Ks7meLTZiZx8/FX2NxmOxFOvQx8DYKsDSI2N3JJJ3LnOPMk9SSUBS6RzVzK1Lrb8rX3q1nheBGyMiF7Rw+qwDxDh8Fpllshpaf05+Vwl40Lz3OfK1zS6CVzju48uY4urhs4E89t1+A9pcY4OHATeHeOdM0+8gAD7FolCM3ug0vgojKUFtkmyTrFlZ2AyDpgwuidXfXLtt2ymVrRw+8Eg+W6ybhcxtXQupCx72Q1IKtsAet3Prtj3/AFmOIHmB7Veyab1DmZYXajycLqkT+MUca1zI3nps6RwB9oJ2J58iN1qpKtSWu6pJBG6q6LuTCWju+7A4Q3h9g8FNWKuKhz5IODsk5cH7XsV7UENmvI2WCZgfFIw7tc0//ea9VkG6bz+Jkkfp3KtZXkcXmlkQXxAnrwvAPz4QfMr0Lu0yQcAjwEPh3odM4jzAId/dVXpRf0yWCz1Gvqiyz1Hl6+Hxdqd0jRPJHJDUZv6zpXDbiA67N33Py6nnkLWMmxmg5WWGFlm1aguTMdydH3j2hjHeYaG7+e6lXNK6nPBln5OO9mK8rZo4XxjueBh4gyLvfV3B5gcLR7jzVpPFk9VacEclf6PtTTR8TbTX8LhDIOJ7Wj8YA7nsCN/vOiDjWo7XlZ6lMt028rHToXmK/gvEf5vp/wCxYpu6yMWJ7QYYooY8/j2xxRsijb6G08LGANA3Me6+/o7tF/6Q0P8AQmf/ABqh1xbzuX8/8LlNpY2s1e6KlxFTVEE878vlK9yF0QbDHBXbEWScW5cSGjw5K6VUlh4zksi8rOAiIokgiIgCIiAIiIAiIgCIiAKvyuGw+agbWydSOxEx3HHxFzZIn9OKKSMh4PuIVgiAzLtEafkaYp5szPWPI1p8vkH1y380s7zp8VfU6VHH14alKvDXrQgtjigaGMbudydh4nqT4qQiAIiIAiIgCIiAIiIAiIgCbIiAIiIAiIgCIiAIiIAiIgCIiAIiIAiIgCIiAIiIAiIgCIiAIiIAiIgCIiAIiIAiIgCIiAIiID//2Q==" vertex="1" parent="1">
          <mxGeometry x="233.6" y="26.53" width="65.4" height="72.67" as="geometry" />
        </mxCell>
        <mxCell id="NF1J7Xzm1R2NQvQhPd1J-18" value="-&amp;gt; Request&lt;br&gt;Response &amp;lt;-" style="text;html=1;strokeColor=none;fillColor=none;align=center;verticalAlign=middle;whiteSpace=wrap;rounded=0;" vertex="1" parent="1">
          <mxGeometry x="209" y="199" width="105" height="38" as="geometry" />
        </mxCell>
        <mxCell id="NF1J7Xzm1R2NQvQhPd1J-20" value="WebSocket&lt;br&gt;communication" style="text;html=1;strokeColor=none;fillColor=none;align=center;verticalAlign=middle;whiteSpace=wrap;rounded=0;" vertex="1" parent="1">
          <mxGeometry x="203" y="278" width="105" height="38" as="geometry" />
        </mxCell>
        <mxCell id="NF1J7Xzm1R2NQvQhPd1J-26" style="edgeStyle=orthogonalEdgeStyle;rounded=0;orthogonalLoop=1;jettySize=auto;html=1;exitX=0.005;exitY=0.005;exitDx=0;exitDy=0;exitPerimeter=0;entryX=1;entryY=0.25;entryDx=0;entryDy=0;startArrow=classic;startFill=1;" edge="1" parent="1" source="NF1J7Xzm1R2NQvQhPd1J-21" target="NF1J7Xzm1R2NQvQhPd1J-5">
          <mxGeometry relative="1" as="geometry">
            <Array as="points">
              <mxPoint x="671" y="237" />
            </Array>
          </mxGeometry>
        </mxCell>
        <mxCell id="NF1J7Xzm1R2NQvQhPd1J-21" value="Script" style="html=1;whiteSpace=wrap;strokeColor=none;fillColor=#0079D6;labelPosition=center;verticalLabelPosition=middle;verticalAlign=top;align=center;fontSize=12;outlineConnect=0;spacingTop=-6;fontColor=#FFFFFF;sketch=0;shape=mxgraph.sitemap.script;" vertex="1" parent="1">
          <mxGeometry x="681" y="235" width="106" height="63.14" as="geometry" />
        </mxCell>
        <mxCell id="NF1J7Xzm1R2NQvQhPd1J-24" value="" style="shape=image;verticalLabelPosition=bottom;verticalAlign=top;imageAspect=0;aspect=fixed;image=data:image/jpeg,/9j/4AAQSkZJRgABAQAAAQABAAD/2wBDAAsJCQcJCQcJCQkJCwkJCQkJCQsJCwsMCwsLDA0QDBEODQ4MEhkSJRodJR0ZHxwpKRYlNzU2GioyPi0pMBk7IRP/2wBDAQcICAsJCxULCxUsHRkdLCwsLCwsLCwsLCwsLCwsLCwsLCwsLCwsLCwsLCwsLCwsLCwsLCwsLCwsLCwsLCwsLCz/wAARCAEOAPMDASIAAhEBAxEB/8QAGwABAAEFAQAAAAAAAAAAAAAAAAUBAgQGBwP/xABPEAABAwMBAwUKCQcLBAMAAAABAAIDBAURBhIhMRNBUWGRFCI1cXJ0gaGxsjIzNkJSVXWz0hY0U2KStNEHFSNUc4KToqPBwyVE4fAXQ0X/xAAbAQEAAgMBAQAAAAAAAAAAAAAAAwUBAgQGB//EADcRAQACAQIDBQUGBAcAAAAAAAABAgMEEQUSMRMhQVFSFCJhcZEGM4GhseEVFsHwIzI0U1Ri0f/aAAwDAQACEQMRAD8A62iIgIiICIiAiIgKhOMnmHHP+6qta1bXSU9LBRxOLXVjn8qQd/Ix4y3+8SM9QI51JjxzkvFY8UeXJGOk2nwLhquip3Pioo+6pGkgyF2zAD+qRvd6MDrWv1Gp7/MTs1DIGn5tPEwY/vP2netRUENRVTQ01PGZJ5nbEbBuycZJJ5gOJK2QaMrOR2jcIOXxksEL+Tz0cptbXp2fQrbs9Pg2i/X4qntNRn3mvT4NdnrrhU/nFVUSjokkc4dhOFiFe9VT1NHPLTVLCyaM4c3OQecOaecHiFjldtdtvd6OK2+/vdQkqjZJYyHRvcxw3gscWkekKhKtJWWISUN/1DBjk7jUHHNMWzDxYlBU7b9aytcyO5wNcw7jUUrSHN63xE4PoI8RWnEq3Kgvp8d474dFM+Sk90uz09RT1UUc9PIyWGVu1G+M5a4f+8V6rmGmbzJba6Knlee4a2RkUrSd0UryGslb6cB3Uf1V09UufDOG2y5wZoy13ERFAnEREBERAREQEREBERAREQEREBERAREQFo2snHu+ibzCjBHjdK/PsW8rRNZH/qNH5i372Rdmi++hx637mXlpJ8Lbu4PwHyUczICfp7THkDrIB7Fv65A1743skjc5j2OD2OaSHNcN4II51M/lXqARcly0O1jHKmFnK/g/yrr1Oltlvz1lx6XVVxU5bPfWUkLrnA1hBkjo2NmxxBL3Pa09eDn0rWSVdJJJK+SSR73yPcXve8lznOO8kk715krtxU7OkV8nHlv2l5t5hKtJQq1SNBWlVJVuVhlZISGPwSDsOII4ggLtdHI6akopnfClp6eR3jdG1xXE5D3knkO9i7RbfB1r8ypPumqt1/Sqy0HWzLREVUtBERAREQEREBERAREQEREBERARFh19xordDy1VJsgkiNjRmSVw5mNWYiZnaGJmKxvLMRaLV6uucpcKSOKmjz3pcBLLjpJd3n+VRjr9fycm4T/3eTA7A1dtdDknr3OK2uxxPd3umrW79YKy7VcFRBU08TY6cQlsrZHEkPc7I2d3OtTN+v8A9Y1Paz8Kp/P2oPrGp7WfhU2PSZcduasxuhyavFkry2iUt+Rd0/r1F/hzfxVp0VdT/wB9Rf4c38VEm/6g+santZ+FUOoNQ/WVT2s/Cp+XU+qHPzaf0ylvyIuv9fov8Ob+Kp+RF1/r9F/hzfxUQdQah+sqntZ+FW/lDqL6yqe1n4U5NT6oZ5tP6ZY9yopbbW1FFLIySSDk9p8YIadtjZBgO386wiV61FTUVU0k9TK+WaTZ25H42nbLQ0Zxu4ALwJXVXfaObq5bbb93QJVuUJVuVkWyHvJPIf7F2q2eDrX5lSfdNXE5PgSeQ/2Ls1K5zbVbC0kHuSiGR/ZNVTxTJGLFzz4brLh9d7zCRRR3LT/pHdqctP8ApHdq8n/GsPpleezW80iiwo6t4IEm8dI3ELMBBAIOQd4wrHTavFqY3xyivjtTqqiIutGIiICIiAiIgIiICIiDxqaiKlgnqZnYihjdI8jjgcw6zwC5lcK+ouNTJUzk5duYzOWxRg7mN8X/AJ51tmsKox0dJStO+pmL34PGOEA4PpLexaOVb6HFEV7SesqfXZZm3Z+EBVpPFVJVpPFWSuUJ4q0lDzq0lAJVpKEqhKw2UKoUJVpKwzsFWlCVaSjKhKoiosC1/wAXJ5D/AGLstN4JtnmlF901cak+Ll8h/sXZ42OhttBE8YdHT0sbh+s2MAqi45MezW+UrXhsf4k/g8lRUVMr5ZMvVRCqyqOXe6I+U3/cLDyqxv2JI3fRcM+LgV0aTUzgz1v9fk0yU5qTCYREX0GFQIiLIIiICIiAiIgIiINC1dNt3KKIHdBSxgj9aRznn1YWuEqW1I/bvVzP0XwsH92FgUOSvR6eOXFWPg85qJ3y2n4hKtJQnirSeKlRBPFWlCeKtJRkJVpKE72t3lztzWtBLnHoa0bys1lm1BM0OitVcWkZBdFyeR1CUtPqWtrRXrOzatZt0hgEq0lSZsGpvqis/wBH8aodP6m+qKz/AEfxrTtaeqPq37O/pn6IslWlSh0/qf6orP8AR/Gqfk9qf6nrP9H8ax2lPVH1Z7O/pn6ItFKfk7qc/wD49Z6eRHtepSg0Tfal7TWuioYNxd3zJ6gjoYxmYx4y4+IrE5sde+bQ2rhyWnaIRunrU+73Sni2c0lK+Oprn470MY7aZFnpeRjxZPMuo1cgLmxj5u93jPMvGko7dZaRtHQx7IBLnFx2pJJDxkmceLj/AO4AwvMkkkkkknJJXhPtBxSuSOwp+P8AfnL0fD9JOKOaxlUyqZCpleKmVzEKkq086KijmW0QmYXbUUTucsbnx4XosejOaePqLh2OKyF9K0t5yYKXnxiP0Ud42tMCIi6WgiIgIiICIiAiIg5lqNpZeroDzyxu9DoWFRBK2DV0RjvDn81RTQS+luYj7AteJXo8E746z8IeczRtktHxlQnirSVUq086lRqdKzrVaay81Rp6fDI49l1TUOGWQsPAAc7j80ek7hvwDtHAY3ae4tYxo4ue4hrWjxldWtdBFZbbT0zMGbG3O/8AS1Dxl7z1cw6gFw63VRpcc3l16XB299vBS32qzWWMNpoRy5H9JNJh9TJ1ueeA6hgdSyjVu5mD0klY5JJJJyTvJKovm+p4xqMt5ms7R+b1WPTUpG2zI7rk+gz1p3XJ9BnrWOqLl/iOp9aXsaeTJ7rk+gz1qndcn0GetY+VTK1niWp9Z2FPJk92SfQZ615uqZ3btoNH6gx6+K8CVTKiycQ1N42m8t64aR37K5VpKZVFXTZ0RCuVTKoqZUUy2iFSVaSioSo5s3iEtQ/m7fKf7VlLwpG7NPAOct2v2jle6+m6Gs102OJ8o/RQZZ3vMiIi7EYiIgIiICIiAiIg0/W1PmO21Yb8B8tM8+WBI32HtWkErrF3oBcrfV0m4PezahcfmzMO0w9u4+Ncme17HPY9pa9jnMe1ww5rmnBaR1K50OTmx8vkptbj5cnN5qE8VaShVCu5wpGxxtmvdkjcAW92MkIPA8kx0o9YC6dVk7cY6Gk9pXM9OeH7J5xJ+7yrplX8YzyB7SvJfaSZjD9P1X3Co6sdEVCV8+ehVyrcoqZWky2iAlUymVaSopltEK5VMqioo5ltEKqmVTKotJlvEKkq3KKiimW8QZVWtMj2MHF7g3tVpKzbdFtyPmI72MFrfLPHsHtU+j086rPXFHj1+Xi0y37Ok2SjQAABwAAHiCqmEX1OI2jaHnhERZBERAREQEREBERAWq6i0wa9766g2W1hH9NE4hrKjG4OB4B/qPVxW1It8eS2O3NVHkx1yV5bOMVNNV0b3R1dPNTvHETMc0eh3wT6CVjGWL6bP2gu3loO4gEdBGQreRh/RR/sN/grCNf51cE6Dys5Npt7DqCxgPaT3TLwIP8A28q6dV/GM8ge0rLEUQORGwEcCGtBHpAWJWfGN8ge0rz3H83baebbbdFnoMPZW233Y6tTKovAzK7iAqhTKtJUcy2iDPiVMjpWbBVU8cTGOa4kZzhoPE5Xp3bS/Qf+y3+KsqaLBasWtniJnw26fmgnLeJ7qI7IVuR0qS7upfoP/Zb/ABTu6k+g/wDZb/FJ4fpv+TX6fuz22T0SjCR0qhcOpSfd9Jv7x/D6Df4rLbsuDXBowQHDcOBGVLh4Nj1EzGLPE7eUfu1tqrU/zUQGQqZWxbLegdgTZb0DsCn/AJat/u/l+7X2/wD6/mhIaWecjALWc73DAx1ZUxFGyJjY2DvWjHWeknrXphFe8P4Xi0O8177T4uTNqLZuvQREVq5xERAREQEREBERAREQEREBERAWBW/Gs8ge0rPUfXZEsZ/U/wByqfjP+kn5w6NN95DFVCUVF4WZW0QKiK0lRzLeIVyqISrSdxUc2bbKgOccNa5x6Ggk+pUcHNOHAtPQ4EH1qbpomRRMa0byA5x5ySM5KsrImSQyEjvmNL2nnGN69JbgN40/a8/vbb7f0cMayOfbbuQp4HxFbBF8XF5DPdC148D4lsMWRHFniGMHqC2+zX3mT5R/VjX9Kr0RF7RViIiAiIgIiICIiAiIgInanagInanagInanagInanagLFq4jIwOaMuZk45yOdZXamFBqMNc+OcduktqWmlotCCVCVJz0bJMujOy87yPmuKj5IZ4s7bHY+kN7e0LwGs4fn0s+9G8ecf33LjFnpk8e95qipnKoqqbOqFcqhVMoo5ltskaaujYxsc2QWgBrgM5A6RxVtVXMkYY4g7DtznO3bugBYDQ55w0Fx6Ggk+pZkNBO8gyf0be159HBX+DXcQ1OL2fFG8dN9vD59HFfFgx257PGmhdPK1o+CCDIeYN6PSp0LzihjhaGRtwOJ6Seklei9Twvh/sOLaZ3tPX/xXajN2tt/ARO1O1W7nETtTtQETtTtQETtTtQETtTtQETtRAREQEREBERAREQEREBERB5Pp6eT4cbD17OD2heJoKQ/NcPE5yy0XJk0Wny998cT+EJK5L16SxBb6Tok/bKvbRUjf/qB8rLvashFpXh+lpO9cdfpDM5sk9bSta1rRhoDR0NAA9SuRF2xERG0IhERZBERAREQEREBERAREQEREBERAREQEREBERAREQEREBEUFe9SUdlljp3wTzVEkLZ2NYWMjDC5zBtPcc8x4NKCdRYNprX3K3UFc+NsbqmISljXFwbkkYBIB9SzkBERAREQEREBERAREQEREBERAREQEREBEyiAiIgIiICIiCyWaCCN0s8scUTfhPle1jG56XOICw6G72y5SVcVFPyxpRFyr2scI/wCk2sBrnAA8DwUVrTwG/wA7pfeUToH4d98mg/5kG9LnWufC1F9nRffyroq51rnwtRfZ0X38qDbNL/J+yeat95ymVDaX+T9k81b7zlMoCIiAiIgImUQEREBETKAiIgwrjWyUEElT3M+eGKOWWYxyRMcxrADuEhGc/wCy8m3TFZQ0NRTSw1FXHUSMy+KSNvJEYa5zDxcNojySve5UslbQV9JG5jJKmnkha5+dlpcMZOzvWJcbdW1M5qaWaCKaOma2ldK1zgyoZNyge4N+bjaB8aDFn1RQwzTwimq5BFI+PbY0Fjy04JaRzdCKRZboI44YmNjLIoooml4y4iNgYC49O5EERedX262ulgpmiqqY90hDw2nid0Pk35I5wB1ZBUJHdP5Q7qOUo6eSKFwy10cEMEZH6r6w7R9BUBZGsderIxzWuYa6IFrgC04DiMg7l2BBziprv5QrU0T1b6hsWQC97KSeEEnADzGDjPXhbFp7U8d2d3JVMZDXBpcwMJ5Koa0ZJZtbw4c4yekc+zsckccrJI5GNfHI1zJGOALXMcMFpB5iuQ18M1lu9TFTuc2SgqhLSuJ37O6WPaPWCAfSg7Auf3bVd6FxqKGmMNPFBXilL2M25ntbMIzl0mWjPU30reaOpjrKWkqo/gVMEU7OoSNDsLk908PXL7Zf+9BB19ERBqWqb9dbTV0cNG6AMlpnSv5WLbO0JC3cchTNgram4Wi31lSWGedspkMbdhveyvYMNyeYDnWo678IW3zJ33pWzaS+T1o8io/eJEGralrNTyi409XSFlqZXOEExgDQ5rZCIiH7RO/xKNsVXqKlNb/M1KZzJyHdOIRLs7O3scXDGcuW5608ByedUvvKJ0D8O++TQf8AMgn9PVV/qoKx15pzBK2oa2BpiEW1FybSTgOPPlarrnwtRfZ0X30q6Kuda68LUX2dF99KgyaPVlvs9ktFKyM1NZHSsbI0O5OGJxLjsvkIJJ4bgD4wvJ+odd1DeXgt0sUGNoOht8rhjpzLlx9AUvpOy2uO32+6OhEtbUxctys+H8jkkbMLSMDhxxnr6NqQc+t2uK2OVjLpFHLAXbL5oGGOaLfjaLAS0gc4wD48YO/xyRysjljc18cjGyMc05a5rgHBwPQVz7W9vhp6ykroWtb3a2Vs4aMAzRbJ5Q9ZB3+Sp7RU8k1jYx5z3LVVNOwn9GCJGj0bWB4kE7WVlJQU01VVSCOGIZceJJO4NaBvJPMFolVq+/3Co7ms9O6LayY2RRCoqnsG7aeXAsA9G7pK8daXN1RcDRBx7mt7QXgHc6oc3bc4+IENHp6VtumLVFbLXTEsb3XVxx1NW/HfF727Qjzxw0HAHjPOg1d8v8pVK3uiQVxYAXOw2jn2Rx76OPad6lIWbWYnliprq2OIyEMjq4sti2juAmYScZ6QcdQ4rdFz3Wtqipp4LjCwNZWOfFUtaMN5cDaD927LhnPizzoOhKOul5tdojD6uXv3gmKCIbU8g4Za3PDrJA61FaNuUlbbX00zi6a3vbBtOOXOgcNqIkno3t/urVtZ+HJvNKX2OQSf5Uapu8j2WS3bMbTsmQMEzmn9eaUthB6sFeNR/wDJsLXTymrLRvcKc0UpA/s4hnsBW42NrG2ayBrWtH830jsNAAyYmknA6VIoOd23Wtxgkay5tbUU5OHyxsayeIcC7ZYA045xgH2HoMUkU0cUsT2vjlY2SN7TlrmOGQ4HrXONa0cNNdIp4mhvdsHLShoABmY8sc7A6d2f/K23STnO0/asnOyKiMZ5msnkaB6AgnUREBERByCxeHLH5/H7rl1/mXILF4csfn8fuuXX+ZAXMNYNAv1SR8+npHHx7Gz/ALLp65Tqudk19uTmuBZDyMGeuKJu12HI9CDetJuLtP2jO/YZNEM9Ec8jB7Fzy6eHbl9sv/egukaagfTWKzRSDDzTNmcDxBmcZsHtXN7ruvtzJ3AXiRxJ5gKnJKDr6IiDnuu/CFt8yd96Vs2kvk9aPIqP3iRazrvwhbfMnfelbNpL5PWjyKj94kQY+tPAcnnVL7yidA/Dvvk0H/MpbWngOTzql95ROgfh33yaD/mQb0uda68LUX2dF9/KuirnWuvC1F9nRffyoNs0v8n7J5q33nKZUNpf5P2TzVvvOUyg0vXvxNm/tqr3GrK0L4HqPtKp9yJYuvfibN/bVXuNWVoXwPU/aVT7kSDRbwTJdLyXfPuFW09Q5ZzfYuxtAAAHAAAeIBcm1NSvprzdmfppTVRE7gROOU3eI5HoXULdVMraGgq2EFtRTQy7uYuaMj0HIQZS1rWrQ6y5PFlZTOb4ztN9hK2VanrmdjLbR0+e/nrA8DpZCxxce0t7UEToN7hcLswfBdRQPI62yuA9pWHrPw5N5pS+xyltBUrtm8VxHevfBSRnpMQdI/3gPQonWfhybzSl9jkG/WXwPZPs6i+6apBR9l8D2T7OovumqQQc/wBefnlq81n+8ath0h8n7b5VZ+8yLXtefnlq81n+8ath0h8n7b5VZ+8yIJ9ERAREQcWop56Wto6mnjEk8E7ZYWFrn7b2g7tlnfHdngt9odcWedjRWRzU0nBxY0zwk9Tmd/2tWmWLw5Y/P4/dcuk12nbBcHOkqaKPlnfClhLoZSelzoiM+nKCIuWtLbFDI22cpUVLgRHI+J0cMZI+ERIA445hj0rVLFZ6m/V21KHuoo5uVuE7s4ldnbMLXc7nH4XQCekA7tHovS8bg51NNKPoz1M7melocAfSp6GGCnjjhgijihjbsxxxNDGNHQ1rdyD0AAAAAAAwANwA6lzTV9ompK+ormxk0Vc/bc8b2xTuGHseRw2uLT145t/S1bJHHKx8cjGvjeC17HtDmuaeIIO5BpVm1nTx08VNdWyiSJrY21MTeUEjWjAMrR3wd04Bz1KTqNZ6dhYXRPqKh2DhsUL2DPW6bZHtXrNpDS8ry/uN0WSSW0888bPQxrtkegL1p9LaXp3Ney2wvc3gakyVHqnc4epBzy83ie91MVU+FkUTGOhpwzacC0O2jmQjBO/fgDxdPQdJfJ60eRUfvEi1zXXJsqLNCxrWtjp6hwa0ANaHSMAwBu5lsulmFmn7IDxdTcp6JHukHtQX6joJrjaK2CBu1O0MnhaOL3ROD9gdZGQFo+lbxS2isrG1m2yCrZHG9+w4mGWFzsbbB32N5B3ZGOHR09RddYLDcXmWqoYnTEd9LGXxSu8p8RBPpQZdHX2+vY+SjqYp2McGPMTs7LiA7Zdz5wtD1z4Wovs6L76VbvbbTbbTHNFQxvjZNIJZA+WSQl4aGZzISeACtrbLZbjKyeuoop5WRiJr5NrIYCXBu4jnJQY2l/k/ZPNW+85TK8qampqOCGmpomxQQsDIo252WN44GV6oNL178TZv7ap9xqytCj/o9R9o1PuRKerrZa7kIW11LHOIS50Qk2u9LgASNkhX0VBQW6J0FFTsghdI6UsjzgvcAC7eT0BBB6qsT7pTx1NK3arqRrg1mQOXhJyY9/OOLfSPnZGu6a1I20iS3XBsopRK4scGkyUsjjl7JIz32znfwyDncc970dR1fZLLc3bdZRxSS4AErdqObHMOUjId60GHJqzTMcZeK3lSBkRwwzGRx6AC0AekhaTV1F01bdmx0sWAxojia45jpIM5Ms7huyeJ6dwHDK3FmjNLtdtGmneM/Akqqgt9IDh7VN0tHRUUTYKOnhp4Rv2IWNYCeGTjietB522gp7ZRUtFT55OBmC53wpHk7TpHdbjklc81n4cm80pfY5dOUbWWKxV8zqisoYZp3Naxz37eS1u4DcQgusvgeyfZ1F901SCshhhp4oYIWBkUMbIomN4NYwbLWjPQr0HP9efnlq81n+8ath0h8n7b5VZ+8yKQrrPZ7k+KSuo4p3xMcyN0m1lrSdogYIWRSUlJQwR0tJC2Gnj2uTjZnZbtOLjjO/iSUHuiIgIiIOQWLw5Y/P4/dcuv8y52NO1VkvWnJJKmGeGe5MjjLGvjkBDHHvmHI/zLonMgIiICIiAvGpqqWjhfPVTRwwsHfPlcGjpwM8T0ALV9aVtyomWx9HWTwNmdURSthcGlxAa5rtoDa6RxULQaYvF7ZHW1dyYIn5G3IZqmp68cqQ0dpQYN5rKjUl4YyijcTKG0dC0jDuTaSXSydAGS49A611Clp46WmpaWP4FNBFAzmy2NoYD6lgWmxWuzMd3LG508jQ2WpmIfNIM52c4ADeoABSqAiIgIiICIiAiIgIiICIiAiIgIiICIiAiIgIiIP//Z" vertex="1" parent="1">
          <mxGeometry x="705" y="173" width="52.9" height="58.77" as="geometry" />
        </mxCell>
        <mxCell id="NF1J7Xzm1R2NQvQhPd1J-27" value="Kafka communication" style="text;html=1;strokeColor=none;fillColor=none;align=center;verticalAlign=middle;whiteSpace=wrap;rounded=0;" vertex="1" parent="1">
          <mxGeometry x="508.2" y="193.77" width="105" height="38" as="geometry" />
        </mxCell>
        <mxCell id="NF1J7Xzm1R2NQvQhPd1J-30" value="" style="shape=image;verticalLabelPosition=bottom;verticalAlign=top;imageAspect=0;aspect=fixed;image=data:image/jpeg,/9j/4AAQSkZJRgABAQAAAQABAAD/2wBDAAsJCQcJCQcJCQkJCwkJCQkJCQsJCwsMCwsLDA0QDBEODQ4MEhkSJRodJR0ZHxwpKRYlNzU2GioyPi0pMBk7IRP/2wBDAQcICAsJCxULCxUsHRkdLCwsLCwsLCwsLCwsLCwsLCwsLCwsLCwsLCwsLCwsLCwsLCwsLCwsLCwsLCwsLCwsLCz/wAARCADeAa0DASIAAhEBAxEB/8QAHAABAAIDAQEBAAAAAAAAAAAAAAcIBAUGAwIB/8QATxAAAQQBAgIGBAgJCgUDBQAAAQACAwQFBhESIQcTMUFRYSI2cYEUMkJScnWRtBUXIzR0oaKywTNDVWJzgpOxs9MkU2PR4RZEkiWDlPDx/8QAFAEBAAAAAAAAAAAAAAAAAAAAAP/EABQRAQAAAAAAAAAAAAAAAAAAAAD/2gAMAwEAAhEDEQA/AJcREQEREBEXM5bXGjsM98VrJRyWWbgwUQ6zKCOXC4x+g0+TnBB0yKOT0vaSDthRzRb49TU39u3wj+K2+M6RdE5NzYhfdTlfsGx5KPqAd/GUF0X2vQdei+Wlrg1zSC1wDmuB3DmnmCCOS+kBERAREQEREBERAREQEREBERAREQEREBERAREQEREBERAREQEREBERAREQEREBERAREQEREBERAREQF8PexjHvkc1jGNc973kNa1rRxFzieWw719qN+lbPS0MXWw1d5bNli91ktOxbTiI3Z4+m4gexrh3oOR1p0h3svLPjcPNJWxDC6N80Zcye/wBoJce1sZ7m9p7+3hZHiLr9JaHy2qC+fjFPGRvLH23s43SPH83BHuNyO87gDzI2IcginVvRHpARcDrWXdJ2mUTwAg+Tep4f1LhNW9HmT07FJfqSm7i2kCV/Bwz1g47AzMbyLewcQ94HeGFpTW+X01NHCXvs4lzh19OR2/ACeb6zj8V3l2Hv8W2Ax1+jlKVS/RlbLUtRiSF7e8dhDh3EHcEdxCqkpQ6Js8+vftYCd5MF5r7VMOPxLUTd3tby+U0b9vyPNBNKIiAiIgIiICIiAiIgIiICIiAiIgIiICIiAiIgIiICIiAiIgIiICIiAiIgIiICIiAiIgIiICIiAiIgKAelSxJNquWJ3xalCnAwf1XB05/W8qflBHSxTfBqSG1serv4+B4d3dZCXQub7gGn3oI+Ac4ta0ElxDQPEnkArVYrHVsTjsfjawAhp144W8tuIgek8+bjuT7VVX2farPaazdbUGGx+Rhc0vfG2O2wHnDaY0CWMj28x5EHvQbpeU0MFiGevOxskE8T4ZmPG7ZI3tLXNd5EL1WFk8jSxFC5krkgjrVI3SSEkAuPY1jN/lOOwb7UFYMrTGOyeXoAlwo37dQOPa4QyuiB/Us3S08lbUumZmEgjLUIzt3slmbE4fYStdetS3rl67Lt1tyzPal27OOaQyO2+1bXR9SS7qjTMDBuRkq1hw/6dZ3wl/6mlBZtERAREQEREBERAREQEREBERAREQEREBERAREQEREBERAREQEREBERAREQEREBERAREQEREBERAREQFxnSFpuTUOF4qkfHksa99mo1oJdMwgNlhHmQARy7WAd67NEFRyCCQRzW4weoc3p2y6zi7PVl4AnheOOvO0dgkjPL2HkRv281KmtejhmUksZXBNZHkJSX2ajiGQ2ZD6RkjceTXnv35HyPN8OXaN/HTvrXqs9adm/FHYjcx3tAPaPMIJJb0x5QQ8L8LTdY2/lG2JWxb/2RaXftri9Qas1BqWRhyNhrYIiXQ1awMdaNx5cXCSXE+ZJK0C+mMe9zWsa5z3ENa1oJc4nuDRzQfKl/on09IwWtR2oyBIx9PG8Q+M3i/LTAHzAY3+8tTpPozyOQkhu6gjlpY8Fr21Hbst2gCDwvaPSY3x32Ps+MJshhhrxQwQxsihhjZFFHGA1kcbBwta0DlsO5B6IijPpP1XNjYGYHHycFu9F1t6VjiHQ1HEtEbSOxz9jv5fT3Afequk+li5JaODjiu3IyWS2ZCXUoXDkWs4CC4j2geZ7BFuQ1frDJvc61mb3C7tiryurw7eHVQcLP1LQrLpY/JZKYV8fUsWpyN+rrROkcB853D2DzKD9ZlMxE4SRZC8x47HMszNcPYQ7ddRh+kjV+KkYJrRyNbf04cgTI8jvLbH8oD7SR5LXWNEa4qxGaXB3OrAJPU9XO8Ac+bIHOd+pc8QWkgjZwJaQe0EciCgstpnVeG1PXdJSe6OzE1rrVOcjrod+XENuRb4Ee/Y8l0KqpjMnkMPdrZChMYbNd4cwj4rh8pjx3tPYQrK6fzNbP4mhlIPRFhm0se+5hnYeCSM+w77eWx70G2REQEWBlMviMLWZbylplas+VsDXyNe4GRzXPDQI2k9gPd3LTfjA0D/TcH+Da/wBpB1CLEoX6GUqQXqE4nqT8ZhlaHND+B5jdyeAe0Ediy0BF5CeAzvrCVhsRxRzyRBw42xSOexry3t2Ja4D2JPYq1YzLZnhhiBAMk72Rs3PYOJ5A3QeqLxgtU7bC+rZgnYDsXV5Y5Wg+BLCQv2WevE+tHLKxj7Mhirtc4B0sgjdKWMB7SA1x9yD1RFg2sthKUrYLmTx9ad2xbFatQRSEHwZI4FBnIvCS1TijillswRxTOjZC+SSNjJHv+K1jnHYk92y+pZ69eOSaeWOGGMbySTPbHGwb7buc8gIPVFjTXsfWbFJYt1YWTDeJ008UbZBsDuwvI37R9q/K+Qxlt7mVbtSw9reMtr2IpXBu+25DHE7IMpERARc/m9YaWwDjFkL7BZ23FWu0zWOfzms5D+8QuYPS9pTj2FDMFm/xjFVB9vD1/wDFBI6LnMFrPS+oZBBj7UguGN0hq2InxzcLe0gjeM7eTit7Zs16lezasvEdetFJPPI7chkUbeN7yACeXsQeyLl/xgaB/puD/Btf7S2uKz2CzjbD8VcZabXLGzFjJWcBeCQD1rW+BQbNERAREQEREBERAREQEREBERAREQFodXQVptN6kM0EUphxORliMjGuMcjYHkPYXDkR4renYAknYDmSewDtJJK4fVusdHsw+fxrctXnu2sbdrQxU+KwDLLE6NrXSQgxjn27uQV/Uw9DsMBr6hmMUZmbYqMZKWt6wNLHktDu3ZQ8pQ6L9Raew0WYrZS/HVluWKz6/XNl6tzWMcCTK1pYO3vIQTSi8oZ69mKOavNFNDIN45YHtkjePFrmEheqAqvamyT8tn87fc4uE92YRd20ER6qJp9jQArQqpUzXRyzMcNnMke1wPcQ4ghBk4vH2crkMfja4HXXbEVdhIJDOM83uA57NG5PsVl8Jg8VgKEGPx8QYyMNMshA62xKORlmcBzcf/A5DYQL0fTQ19Y6dfMQ1rprEDSf+ZPWlhjHvLgPerHoCjTpM0nTtY+xqGlC1l+ltJe6tu3wquSGl7w0fGZyO/gD4DaS1pNVzwV9M6nkmIDDib0XPsL5onQsb7yQPegrCpb6HcjJx5/EucSwtgyMLe5rv5CV3v8Ayf2KJFI/RCx51Fk5B8RmGma4+brNcgfqKCckREEedLnqxS+uqv3eyoJU7dLnqxS+uqv3eyoJQWO6OvU3Tv0Ln3yZdPJJHCySWV7GRxMdJI954WsY0FznOJ7gFzHR16m6d+hc++TL51y7MWcZXwuJrWX2c5ZZSnsQxSvhqU+JvXSTyMGwB3DefaC7wQcZSzGWiz9XXVkuZgc7k58Dwv3b1NFnCyvO7c7AcTXF3L5DvnrpelMA6XaHbcJylEO35Db0991jWejRkmNloRajz8kTIT8Eq2bTTRbKwExh0PBtw7+AWuzH/qPM9H+NrWMVkzlquRp1LcDqlgzSivxNE4YRuWkcJc7s3J8EH7ihpca2wY0Tx/B/gt//ANRfB/hBo9Twbw85e/i27OW/D5rz1ddzmVzl+7hnb1dAshtSbcRbPddI107Bw7cmtBDvJjvnrv8AKPZgsPlLOJxnFPHC41auOqcTpLL/AEIyYoG77AkF3LsC47C9Hlr8GQvuah1DTt5GN1nJ1qdoRROmsN3e2Rux3dtyfuTvsg3OptUmto9maxLvy2UZUgx7vRJiktDc793E0Bw8iPJMZ0f6UrUmx5Ck3JX5gX3rtx0j5Zp3jd7mnfcDffbbn5k8zz9DTWRnxmrNDW2W2QUrQvadyc0MvwdzXuErWCQN4NwT6exP8o/5i2lbWOfx0DKWd0rn5cpA0QmfF1hZq3HtGwkbI0gDi7Ttv/ABh65o47T+mtJ1IOt+BY/U1CRoe4yyNj4bczhueZ7SAsPWWuNPZfTeZx1RmRFiw2qGGem+OP8AJ2opTxOJ5cgdltdUDO5nA6PsSYi1DdOpaFqzThZJYkqQs+EtDpTGAdgOHc8u3u7FuNfV7dvSWdrVK81mxK2n1cNeN8sr+G3C88LGAu5AE+5ByOtnY9kXRW/Iwvnot4jagiaXvli6iqS1rARv9q3uj59Cz37f4AwlyhbZTJmls1pIg6B0jPQa50ju0gHs7vJYWqI8nWd0YXYcVkrgxTzNcio1pJp4+CGsOBzWjkTse3wXS4XUk2ZtS134DO45scDp+vytQwQvIc1vVtcflc9/cg6FcZ0gaml05h2im4NyWSkfXqPOxMLGAGWYDxbuAPNwPdsezUJdMFh7s3ha2/oQ4vr2jwdPPIwn9gfYgjaSSSV75JHOfJI5z3veS5z3uO5Liee5Xwv3/wDisdhtEaVx2Nq1J8Tj7djqWfCrFutFPLLPw+m4PlBIG++wB5IIr6K/WyH9Au/5NUz6o9WtVfUmV+6yLX4/ROncTmI8zi45asghmhkrseX13iUD0gJNyCPI7eS2GqPVrVX1JlfusiCrqmPoa/NdTfpFD9yVQ4pj6GvzXU36RQ/clQSsiIgIiICIiAiIgIiICIiAiIgLTag1DitOUXXr8h7XMrwR7ddZlA+JG0+Hyj3e/Y7SeeCrBYs2JGx168Uk88j/AIrIo2l73n2DmVWnU+obmpsrYvSlzIGkx0a5O7a9cHkPDiPa495PgNgGTqTWmodSSPZPMa+P4j1VGs5zYQ0dnWntcfM+4DsXML9A3IAG5PIAb8zv2ABSLgeizN5KOO1l5vwZA8NcyAxdZcc08/TYSGt95J8WhBHKKcx0Q6SDNjezRdt8YTVAN/o/B/4rm830S5OqySxhLgusbu74LZa2Gxt4MeD1ZPtDUHEYTUWd0/YE2MtPiDnNMsDt31pwO6WI8j7e3wIU7aT1pitTVnkltXI1outu1pHjhawcjNE87bs8fDv7QX11limgklhnjfFNE90cscjS17HtOxa5ruYIXyC4b7EjcEHY7bg9xQThqbpQxON6ypgxFkbg3abBcfgMR8Q5mxefokDn8Y7bKFLVia3ZtW5iDNZnlsSlrQ0GSVxe4hreQ5leC3uB0tqHUUhbjarnQtPDJam3jqxkdzpSDufIAnyQaWOSSJ8ckT3Mkjc2SN7CQ5j2niDmkd4U56W6SsNkq9etm54qGSY0MfLMQypYI/nGyfFaT3g7DwPc2FL1G/jrU9K9Xkr2oHFskUo2cPMEciD3EdqxEForGpdK1YuunzmLbHw8QLbcD3PH9Rkbi4+4KHtea6GoNsXi+sZiIpA+WR44H3ZW/Fc5p5hg+SD7SOQDY+RAU29EuIfUxd/MStIdlJmw19x/7esXNLx9JxcP7g8VHuj9H39UXWktkhxMD2/DrfCdjtzMEBdyLz3/ADd9/APsRXr16kFerWjbFXrxMhgjYNmsjYA1rQPJB7IiII86XPVil9dVfu9lQSp26XPVil9dVfu9lQSgsd0depunfoXPvky6tcp0depunfoXPvky6tAREQEREBERAREQEREBQX0u+stD6kq/ebSnRQX0u+stD6kq/ebSDgK3OxVH/Xi/fCtmqmVvzir/AG8X74Vs0BajVHq1qr6kyv3WRbdajVHq1qr6kyv3WRBV1TH0Nfmupv0ih+5KocUx9DX5rqb9IofuSoJWREQEREBERAREQEREBERAREQcB0q5Q0tOR0Y3bS5a0yBw7D8Hh/LSEe8MH95QKpX6ZJHGzpiH5LYMhIPpPfCD/kFFCCWuizS0EwdqW9GH9XK6DExvALQ+MgPskeIPos58tie4ES+tFpGCKvpfS8cTeFrsVSnI8XzxNnefeXEreoCIiCM+k/S0FujJqKpEG3qIZ8P4BsbNXcM43AfKj5c/Df5o2hJWxu147dO9UlAMdmtPXkB7CyVjmOH61U5B3PRxhNP53L3IMrFJM6tVbbrQcfBDLwSNY/rg30jtu3Yb7du+/fPcENetFFBXiihhiaGRxQsbHGxo7AxjOQCgHowlkZq/HNb8Wetfik+iIHS/5tCsGg0uc0zgNRQtiylUSPjDmwTxnq7EO+59CQc9vI7jyUbZDoeutc52Jy8EjCfRjyEb4nNHgZIA8H/4BTGiCC2dEWr3EB1vDNb3u6+y7b3CD+K6fD9EmHrOZLmLst9wIPweBrq1f6L3BxkPuLfYpNRB41q1WnBFWqwRQV4WhkUULGsjY0dzWt5L2REBERBHnS56sUvrqr93sqCVO3S56sUvrqr93sqCUFjujr1N079C598mXVrlOjr1N079C598mWFrjXFfTcLqNExy5udm7GnZzKUbhyllHZxfMb7zy5PDeZPVWlcNYFTJZSCvZLGyGLhlkexruYLxEx22/aAf4rC/GDoD+m4f8C3/ALSrrPYsWp57NmWSaxO90k0sri573uO5c5x57ro9I6QyOqbbg3igxld7Rdt7bkfK6mHfkXn7B2nuDgnrE6gwWc+FHFW/hLa3AJnthsMY1zhu0ccrGtJ8gf8ANbZYWMxmOw9OvQx8DYKsDdmNbzJJ7XvceZce0krk9da3ZpqH4DQ4JczZi4mcQDo6UTtwJng8i4/Ib7zyAbIHSZbP6fwbGvyuRgrcY3ZG4l87xuRxMhjBkI8w3ZchP0uaRicWw1ctOB8tsNdjD7OOYO/ZUI2rVu7PNZtzyz2JncUsszi97z4lzua8EE+0elLRVx4jmfeok9jrkDTHv9Ku95+0Ltq9mrbhjsVJ4Z68g3jlryNkjeP6r2EtVTF0OmtVZnS9tstSQyVHvabdJ7vyFhvIHbt2f4OH6x6JCcD0gaBBIObh3BIP5C33f/aWbitU6YzViSpi8jHasRwusPjZFOwiJrmsLt5WAdpHf3qsj3Bz5HAbBznOA8NzupC6IfWXIfUdn71VQTZduU8fVsXbkohq12dZNI4OcGN3A32YCe/wUCdJGYxGbztO3i7TbNdmLgruexkjQ2Vs87y3aRoPY4dymDXPqlqb9CP77VWlB61y1s9dzjs1s0bnHnyAcCTyVi/xg6A/puH/AALf+0q3ogs5jNWaUzFptLG5OOxadG+QRsisNPAzYk7yMA7/ABXtqj1a1V9SZX7rIoY6K/WyH9Au/wCTVM+qPVrVX1JlfusiCrqmPoa/NdTfpFD9yVQ4pj6GvzXU36RQ/clQSstZlc3g8HHDNlbsNVkzyyHrONzpHNG54GRguIHedu/z542o9SYzTOPfduO45H8TKdVjgJrUwHxW79jR8o7cvMkB1d83m8nn8hPkMjLxSv5RRt36qvEDu2KFu/Jo/wDJ3J3IT3+MHQH9Nw/4Fv8A2llY/V+k8tbio47JCzala57I4q9v4jRuS5zow0D2n/NV4w2GymdvQY/HQGWaTdz3ElsUEbdt5Zn7cmj9e+w3J2NhdMaWxel6IrVR1tqYMddtvG0tiQD9TB8lvd5k7kOhWJdyGOxsD7WQtQVa7ORksSNjbv3NBd2nwA3Wt1NqPH6Yxst+16cryYqVZp2fZnI3Dd+5o7XHu8yQ11ec3nsvqC4+7k5zJJ2Qxg8MFdhO/BDH2Adnny5knmgma50raLrPcyH8I3NuXHVrtbGffZex37K8K3S1pGV7WzV8rWBPN8kMMkYHn1Upf+yVBSILVYzL4fMQfCcXdgtxDYPMLvSjJG+0jHbOB9oC1+Q1hpDFW56GQykUFuDq+tidFYcWdYwSt3LIy3mCD2queNymSw9uG9jrMlezEeT2Hk4d7HtPolp7wQsjUGZkz+VuZaWFkMtplUSsjJLA+GCOAlvFz2PDvt5+SCwFbW+irtmvUrZeKSxZljggjENoF8sh4WtBdGB+tdGqwaU9Z9LfXOO/12Kz6AiIgibpjquMOmrwb6Mcl2pI7wdI2OSMfsv+xQ+rL6zwhz+nslSjbxWo2tt0h3/CIdyGj6Q4mf3lWoggkEEEEgg8iCO4hBYro9ykeT0ridiOtx8f4NnaN/RNcBse/tbwH3+S61Vt0fqq3pbImcNM1G0GRX6wIDnsaTwyR78uNu528dyO/dtgsVmMRm6rbeMtxWITsHcB2fG4/JljPpA+0INgiLEvZDHYutJbyNqGtWjHpSTuDW77EhrR2knbkACUGBqfKxYbA5m+9wD4qskdcHYl1mUGKIbb/OI38gfBVgXaa51lJqa02vU448PTeXV45PRfYl24TPI3ft7QwdwP9YgcWgkDoopusanfZ4TwUcfZl4u4PlLYGj3hzvsU8qr+D1FmtO2X2cXYEfWBgnie0Pgna3chsrfedjuCN+3mpj030lafzAjr5FzMZfI2Inf/AMJKfGOd3Iex23tKDvV8vkjjaXyPaxg7XPcGtHtJOyiPVPSpN1ktLTQY1jS5j8jM0Oc89n/DRPHCB5uB9g23MX3Mhk8jKZr9y1ak+dZmfIQOzZpeSgtGzJYqVwjjv0nvPY2OxC5x9wdustVGW+w2rdUYJ8ZoZCbqGnnVsOM1Vw3BI6p52HtGx80Fm0XH6Q1zjdUM+Dva2plo2F0tUu3ZM1vbJXceZHiO0eYHEuwQEREEedLnqxS+uqv3eyoJU7dLnqxS+uqv3eyoJQStV1xBpvRGAoUXRzZuavaLRuHx0o5LUxEso7OP5rfeeXJ8Xzz2LU01ixLJNPO90s0sri573uO5c5x57leK3+k8Tjs1ncfjchcFWvOT3HjsPGxFeN3xQ53cT7tyQHBn6O0XkNT2esfx18TA8C1a4fSeRzMNffkXeJ7u3t2a6f8AH0KGLqQUaEEcFWuwNiZGNgO8uce0k9pPevSpUp0K0FOnCyCtAzghijGzWN332H8VkIMW/cgx9G/kJ9+ppVp7Uu23EWRMLyBv3nsHtVXspkbmWyF/JW3cVi3K6aTwbvyaxvk0bAeQU79Jtl1fSORY3kbdinW5dwMolP6mlV6QbnT2Bv6jycGMp7NLmmSxM8EsrQMID5XAe0ADvJA79xPmE0ZpbBRRsr0IZrDQC+5cYyay93YSHPGzfY0ALm+iTHRwYO/ki0ddkLpjDv8AoVmhrR9pepIQYNrE4W7GYrmOpTxn5M1eJ4924UP680BDh4ZMxhWv/B4c0XKpLnmpxHhEkbncyzfkdzy38D6E3Lxs14LdezVsMD4LMMtedh7HxStLHt9+6CpikXoh9Zch9R2fvVVcHerPpXb9J53fUtWKzj4mF5jP+S7zoh9Zch9R2fvVVBNWQoUsnTtULrDJVtM6udge9hc3cO24oyHd3ioD6RMHiMDnKlLFVzBWkxkFlzHSyy7yvnnYTxSuJ+SO9WGUF9LvrLQ+pKv3m0gj+FrXzQMd8V8sbXDfbcOcARurBfi06Pv6Kf8A/m3v95V+rfnFX+3i/fCtmg53E6L0ng7jb+MpPhtNikiDzZsyei/bf0ZXkd3gsvVHq1qr6kyv3WRbdajVHq1qr6kyv3WRBV1SRoLUuM0zhNT3rjg+Z9mnHTpscxs1mVsUnId4aPlu4eXmSGujdEG1zWbyefyE+QyM3HK/lHG3fqq8Q5tihaTyaP8Aydydz9YPA5TUN+Khj4uJ52dNK7lDXi32Msru4DuHaVr60cU1itDNOyvFLNFHLYka5zIWPcA6RzWekQO1WX07gcRp/HQVcY1r2SNjlmtbtdJbeRv1j3N5EfN7gOzzD503prFaZoinTZxyv4XW7T2tE1mXbtcR8kc+Fvd5kku3qLEyVk0sdk7g23q0rVkb9m8UTpB/kgr/AK/zsmc1DdDHf8HjXPoU2gjhIicWySjbl6Ttz7NvBctXr2Lc9erXidLYsSxwwRsG7nyPcGtaPavMkkkk7knck95Ui9EmOjtZ67kJGhwxlI9Vv2tnsu6oOH90SD3oO50x0dYHDwQzZOCDI5QtDpX2G9ZWhd3sgikHCQPnFu/0d9h2L6GNkjML6dR8RGxjfBE5m3hwkbLJRBGmsOjbGW61m/p+u2rkIg6V1SEcNa2BzLI2djX/ADdtgezbnxNhMggkEEEEgg8iCO4hW3VdOkTHR47VeWbEzhiudVfY3u3sNDpCAP6wcg1elPWfS31zjv8AXYrPqsGlPWfS31zjv9dis+gIiIChrpH0TNBPY1FiYXPrTOfLla8bd3V5TuXWWNHyHdr/AAPPsP5OZUIBBBG4KCoy96ty9RlbPStWK0zeyStK+KQf3mEFTbqTouxOTfLcw8jMdceS98JZxUZXHwY3m0+zceSjDLaH1jh2zy2sbI+tC1732ajmzwhjBxOe7g9MAebQg/RrvXbWdWM5b27NyInO/wDmWcX61pLuRyeSlE1+5atygbB9qZ8pa3waXkrEW1xGn9QZ18jMTQmtdWWtkc0sZHGXcwHySEN/Wg1S6vS+iMzqltqau5lWnCyQMtWWOMc1gD0YmBvP6R57eZ5HttPdE0MborOorLZi0hwo0nOER79ppzs4+YaB9IqU4IK9WGGvXiihghYI4ooWBkbGjkGta3kAgrFmdPZzAWPg+UqPi4ieqlHp15gO+OUcj7O3yC1Ctjcp0r8ElW7XhsV5dhJFOxr2Hz2d3+Cq1k/gf4RyfwKLqqYuWhUj4nP4IBI4Rt4nEk7DbvQYa3GG05qHPyPZiqMs7YyGyyktjgiJ2Oz5ZCGb9+25PkvLCYubNZbF4uIkOu2GRPeBuY4hu+SQA/NaCfcrM43H0MVSrUKELYa1dgjjY0Hu7XOJ5lx7Se9BBdjou1zBEZWQUrBHMxV7Les+yUNb+tcbYr2qk0te1BLBYicWSxTMcyRjh3Oa7mrZrgekrTdbKYexloowMjiYTOHta0OlqNPFLHI7waN3t8Nj89BBVazZp2ILVWV8NmvI2WGSM7OY9p3BCstpXPRajwtLItDWz7GvdjbttFaj2DwNu48nDycFWNSr0O33NuZ/GEkslrQ3429zXQvELyPbxt+xBMiIiCPOlz1YpfXVX7vZUEqdulz1YpfXVX7vZUEoM047JtoRZR1WZuPmsOqxWnN2ifMxvEWNJ9/PyPzTtiNc9rg5jnNe0gtc0kODgdwQRz3U/wCjsbRy3R/h8deiElWzBcZK3scP+MnLXsPc4HYg+ShnUmn72msnYx9kF0fOSpOGkMs1yfRePPucO4j3kJl0BrBuoaXwG9I0ZmlGOt35fC4AQ0WGjx7A8ePP5Wze5VUsffvYq7TyFKUxWqsglheOzlyLXDvBG4I7wVY7S+pKOpsXFeg2ZYZtFerb+lXn25jx4T2tPh5ghoaLpVje/Sj3AcocjTkf5NIfH/mQoCVn9U4x2Z0/nMcwcUs9R7oGjbd08JE8Q5+LgB71WEggkEEEciD2goJ96K54pdJwRsPpVb1yGUeD3OE4/U4Lu1A/RrqevhMjYx2QmEdDJmLgkeQIq9tvotc8k7BrhycfId3MTwgIi5HXOqa+nMVYZHKPwrdifFQia78pHxgsNl23YG8y3xI28S0IGz0zLOc1BZjO8djK5GeM+LJLD3grs+iH1lyH1HZ+9VVHSkXoh9Zch9R2fvVVBOigvpd9ZaH1JV+82lOigvpd9ZaH1JV+82kHAVvzir/bxfvhWzVTK35xV/t4v3wrZoC1GqPVrVX1Jlfusi261GqPVrVX1JlfusiCrqzK2NyV2K/NUqTTw4+AWbkkTS5sEJPDxPI+32AnsaS3DUx9DrQ6nqdpALTYohwIBBBjl3BBQQ4pY6NNZ9U6DTeTl/JyO4cRPI74j3f+1cT3H+b8+XeOHQ9IOj3afvfDqUZ/A16Q9UB2VJyC4wO8u0s8uXyN3cMDtttuOfaOR9xQW4WuzsbpcHqCJnxpcVkY2/SdXe0Lkej3WX4dqDGZGX/6xTjBDnHndrt2AlH9cdj/ALe88HfEAgggEEbEHsI7CEFR1KvQ5PG27qSsSOsmq0p2jxbDJIxx/bCj3O4uTDZjLYuQOHwS1JHGXdroT6cTz7Wlp96ytK52TTubo5IBzoGl0FyNpO8laXZrx7RycPNoQWcRY9W1Uv169upMyatYZ1kMsZ3a9p7x/Ef9lkICgLpVnil1W+Np3dWx1KCQDueeObb7HBTZl8vjsJQs5LIShleBp2G445pCDwwxNJ5ud3fb2DcVmy2Ss5fJZHJ2dhNdsSTuaDuGAnZsbd+ezRsB7EGXpT1n0t9c47/XYrPqsGlPWfS31zjv9dis+gIiICIiAtNqr1Z1V9S5P7vItlZtVKUEtm3PFBXiHFLLO8RxsHm53L2BRdqnpPwlmllcTiqk9sXKtqk63KeohaJmOjMkbCDIe3luG/8AcIeUy9Df5lqT9Kp/6b1DS7rQutaelRfr3KU88F6aGR0teRnWRCNrm7CJ4APb88IJ/RarD57CZ6v8JxluOdg4RKwbtlhJ57SRu9IfZt5lbVAVTbUMle1bgkG0kE80Lwe5zHlpVslXvpIwkmJ1JbsNYRVy5dfgdsdutefy7N9u0O3d7HhBgaDtwUdW6dnnIEZsS1yTyAdagkrMO583BWTVR99v/CmDS3SnTFeClqTrWTRNaxuQjY6RkrQNuKwxnp8XiQDv4DvCWFotXW4aWmNTTzEBpxlqs3fvlsM+Dxjbzc4LX2OkTQVeHrfws2Ylu7Yq8Fl8rvIAsAHvIUS601tb1TJFBDG6tia8hkhgc4GWaQbsEs5HLfbkB3bnmd90HGqSOiGJ7tQZSYD0I8PLG4/1pLEBA/ZKjdTt0VYSTHYWxk52ObNmJI5Ig4EEVIA5sZIPziXOHkQgkNERBHnS56sUvrqr93sqCVY/XGnb+p8RXx9KatDNHkIbbnWjIIyxkM0ew6trjv6Q7lHP4n9U/wBI4f8AxLf+wgkXo69TdO/QuffJlk6t0zU1Pi5Kj+GO5AXTY+w4HeKfb4riOfA7sd9va1e+lcTawWAxeKtSQyT1Gzh74C4xOMk8kw4S9oPf4LdoKn3KdvH2bVK3E6KzWldFNG7ta4fw7wf+62umNR3tM5OG9X9OF20d2sTs2xATuW/SHa09x8iQ6Ydb6EZqY1rlB8FbKxERSyT8YisQeEvA1x4m/JO3YdvDg4n8T+qf6Rw/+Jb/ANhBMeNyNHLUamRoyiWraZ1kThyPbwlrh3OB3BHiFDPSVpKbGX5s5SiJxl+UyWQwHapbefS4gOxrzzB8SR4cXZ6K0trDS888Nm7jLGJskvlhiktGSKYDYSwh8QHPkHDfn7ufeTQwWIpYJ42SwysdHLHK0OY9jhsWua7lsgqUuswmvtXYOFlaCzHaqRt4YoMgwzNjGwGzHtc2UAdw49vJdtqDolimkks6etRwcRLjSul5ibud9op2guA8AQfauIn6PdewOIOGkkHc6CatI0+zhk3/AFINra6WNZzxujgjxlRx7JYK8j5G+Y+ESPZ+wuJt3L+SsyWbk81m1M5ofJK50kjj2AAnn7AuopdGuu7j2h9CKow/zt2xC1o9rIi+T9hSfpbo7wun5Irtl5v5OMh0csrAyCu7t3hi5+kPnEk+HCgr+QQSDyI5EFSJ0Q+suQ+o7P3qqvV/RFql73u/COG9JznfylvvO/8AyF1GhtCZnS+WtX7tuhNFLj5qbW1XTl4e+aGXc9bG0begUEjqC+l31lofUlX7zaU6KN9caEzeqMxXv0rePhhix8NMttPnEhcyWWUkCONw29Id6CFK35xV/t4v3wrZqEouiPVMcsMhyGHIjkY8gSW99mkHl+RU2oC1GqPVrVX1Jlfusi261+ZpzZDEZnHwOY2a9j7lOJ0u4Y108TogXcIJ25+CCqymPoa/NdTfpFD9yVaX8T+qf6Rw/wDiW/8AYXd6D0nk9Kw5eO9YqTOuy1pIzUdK4NETXgh3Wsb4oOoyWPo5Wlcx16ISVbUZjlb2H5wc09xB2IPiFXDU2nbumspYoWPThO8tKxts2xATsHD+sOxw7j5c3WcXPaq01S1Pi5KU3CyzGTLQskc4J9u/bnwu7HD+LRsFcaVy5j7VW7TldFZqyNmhkb2tc3+B7CO/fzVjNJ6np6oxjLUfDHchLYb9dpO8U22/E0HnwO7Wn3drVGX4n9U/0jh/8S3/ALC2+ntAa503k6+Rp5HDHYdXZhdJcDLEBcC6N20HvB7iAgz+kvSMmUrtzuOi479KIMuwxtJfZqt3Ie0Dtezn7R9AAwgrcrgNT9GmIzUk17HSNx+QkLnyhrOKpYeSSXPjGxa495H2EndBEWD1TqPTznfg265kL3cUlaYCWs87g7mN/IHxI2K6h/S7q9zOFtTDsfttxtgskjzAdOW/qWsudGuvKjnBuOjtMb/OU7EDmn2Nlc2T9heNfo917YeGDDSRjfYvnmrxtHmeJ+/2BBp8vns7nZmz5S7LZczcRNdwsiiB/wCXHGAwe4LWua5u3ECNwHDcHmCNwfepl050U1Kr47Wop47cjHBzaVbjFYEHf8rI4BzvZwgebgV56q6Ns5m85kMnSt4uCrO2o2GKU2GvjbBWir8PDHE5vyeWxQRtpT1n0t9c47/XYrPcvBQ/hei3UeNzGGyE97FOhpX6tuRsT7JkcyKRryGh0QG/LxUwoCIiAsS9dp42ncv3JBHVqxulmee5rR2NHeSdgB4lZaiXpezUkbcVgYnFrZmnJXNtvSaHOjhbuO7cPJ9g8EHDar1bk9T3XSSl0WPic74FTDvQibtsJH7ci89593ZyXMopR0N0eVcpWhzOcbN8En3fRpAvjM0YJb1s7m7O4T8kAjcc+w7OCLkVoG6X0g2LqhgMPwbbbOo1nHx5uLeL9a4DWnRtRZUs5TTsToZazHzWaIc50csLAXOdX4t3B47dt9j3bHk8IsxmUyWGuQX8dYfDZhPJzebXt72SN7C094KsZpbUVTU+KhvwgRzsPU3a++5gnaASB38J7WnwPiOVZV3XRjmJMbqSCm55FXLsdTlaT6PXNBkhf7d92j6aCf1odT6coalxktGx+Tlaetp2Wt3dXnA2Dtj2g9jh3jwIBbvkQVazOEy2BtvpZKu6GUbmN4BMM7AduOF/YR/+nY8hq1azI4vFZau6pkqkFqu7c8Ezd+E/OY4ekD5ghR/keiHBzvc/G5K3S3PF1c8bLcTR81vpMf8Aa4oITRS0zobl3HWagYG9/BQJJ9nFOAunw/RlpHFvZNYjmyVhpDmm+WmBrgd/RgjAaR9LiQRzonQlvUE8F/IxywYSJwcS5pY+8Wn+Th7+D5zvcOfNk9sZHGxkcbWsjY0NY1oAa1oGwAA5bL6a0NADQAAAAANgAO4BfqAiIgIiICIiAiIgIiICIiAiIgIiICIiAiIgIiICIiAiIgIiICIiAiIgIiICIiAiIgKvnShJI/V99rjyiq0Y4/JpgbJt9pKsGoP6XMe+DOY/Itb+Sv0RGT/1qz+F36nMQRu0AloJ2BIBJ7t+9Wzghhrw168LQ2GvFHDE0djGRtDWge5VLVh9CaqqahxdWvLM0ZehDHFchc4dZM2MBgssHeHfK8D7QXB2SIue1TqehpnGzWpnxuuyMezH1XO/KTzbciWg8XA3tefd2uAIV5z0ENTN5+rXAEFfK5CCEDsEcc72NA9y+tPuezPacezfjZl8a5u3iLMZAWulklmklmlcXSSvdJI49rnOO5JXSaEx0mS1VgYwCWVbLchM4djWVD1wLvIuDW/3kFkkREBERAREQEREBERAREQEREBERAREQEREBERAREQEREBERAREQEREBERAREQEREBERAREQEREBERAXO6w08zUuFs0RwttxH4TQkduA2ywEBrj81wJafbv3LokQVMs1rNOeeraifDYgkdFNFIOF7HtOxBC/IZ7FaWOavLJDPE7iilhe5kjHDva5pBCsNqzQ+I1O0zb/BMoxoEdyNgd1gaNhHOzlxDwO+48duRh3K6C1niXuEmMltQg7NnxodajcPEtYOsHvYEH43X+vWRdQ3OWODxfHWfL/ivjMn7S5+1cu3pn2LtmezO/48tiR0kjgPFzySjqWQa7gdUsh++3CYZA7fw22W5xujdYZV7RVxFtjHbHrrcZrQAeIfPsD7t0HPqe+jjSkmBoSZC/GWZTIsZvG8bPq1QeJsTh28TvjO9w+SvjSXRxj8E+DIZJ8V7KRlr4g1rvgtR4+VGH83O7w4geQBG6kBAREQEREBERAREQEREBERAREQEREBERAREQEREBERAREQEREBERAREQEREBERAREQEREBERAREQEREBERAREQEREBERAREQEREBERAREQEREBERAREQEREBERAREQEREBERAREQEREBERAREQEREBERAREQEREBERAREQf/2Q==" vertex="1" parent="1">
          <mxGeometry x="522" y="242.14" width="108.22" height="56" as="geometry" />
        </mxCell>
      </root>
    </mxGraphModel>
  </diagram>
</mxfile>
